<svg xmlns="http://www.w3.org/2000/svg" xmlns:xlink="http://www.w3.org/1999/xlink" viewBox="0 0 1673.04 879.02"><defs><style>.cls-1{fill:url(#linear-gradient);}.cls-2{fill:url(#linear-gradient-2);}.cls-3{fill:url(#linear-gradient-3);}.cls-4{fill:#fff;}.cls-5{fill:url(#linear-gradient-4);}.cls-6{fill:url(#linear-gradient-5);}.cls-7{fill:url(#linear-gradient-6);}.cls-8{fill:url(#linear-gradient-7);}.cls-9{fill:url(#linear-gradient-8);}.cls-10{fill:#e55353;}.cls-11{fill:#eea886;}.cls-12{fill:#807066;}.cls-13{fill:#e6a16f;}.cls-14{fill:#5f8cc9;}.cls-15{fill:#2f4563;}.cls-16{fill:#3a3f47;}.cls-17{fill:#a77860;}.cls-18{fill:#963737;}.cls-19{fill:#5e5853;}.cls-20{fill:#91887f;}.cls-21{fill:#6e6760;}.cls-22{fill:#c44747;}.cls-23{fill:#5084c7;}.cls-24{fill:#fae6de;}.cls-25{fill:#303669;}.cls-26{fill:#1e234d;}.cls-27{fill:#434343;}.cls-28{fill:#a1958c;}.cls-29{fill:#d9c9bd;}.cls-30{fill:#565e96;}.cls-31{fill:#4a6c9c;}.cls-32{fill:#ffca55;}.cls-33{fill:#78c2ff;}.cls-34{fill:#ffc655;}.cls-35{fill:#ffbc55;}.cls-36{fill:#ffa655;}.cls-37{fill:#ffd255;}.cls-38{fill:#de3573;}.cls-39{fill:#121d2e;}.cls-40{fill:#2f4b78;}.cls-41{fill:#706865;}.cls-42{fill:#131e30;}.cls-43{fill:#323657;}.cls-44{fill:#918783;}.cls-45{fill:#5e5854;}.cls-46{fill:#bfb2ac;}.cls-47{fill:#e2d2ca;}.cls-48{fill:#18263d;}.cls-49{fill:#eea987;}.cls-50{fill:#ebd9d0;}.cls-51{fill:#163342;}.cls-52{fill:#96244e;}.cls-53{fill:#ed6c3e;}.cls-54{fill:#51578c;}.cls-55{fill:#3d4169;}.cls-56{fill:#eddad3;}.cls-57{fill:#474c7a;}.cls-58{fill:#636aab;}.cls-59{fill:#22334a;}.cls-60{fill:#26374f;}.cls-61{fill:#223247;}.cls-62{fill:#3e3b42;}.cls-63{fill:#e3a080;}.cls-64{fill:#3f74a0;}.cls-65{fill:#eb4747;}.cls-66{fill:#1e3a5e;}.cls-67{fill:#a83333;}.cls-68{fill:url(#linear-gradient-9);}.cls-69{fill:url(#linear-gradient-10);}.cls-70{fill:url(#linear-gradient-11);}.cls-71{fill:url(#linear-gradient-12);}.cls-72{fill:url(#linear-gradient-13);}.cls-73{fill:url(#linear-gradient-14);}.cls-74{fill:url(#linear-gradient-15);}.cls-75{fill:#b7ceff;}.cls-76{fill:#e8e8e8;}.cls-77{fill:#b0b0b0;}.cls-78{fill:#444c94;}.cls-79{fill:#518afa;}.cls-80{fill:#faa146;}.cls-81{fill:#5478b3;}.cls-82{fill:#5779d4;}.cls-83{fill:#b57433;}.cls-84{fill:#525252;}.cls-85{fill:#6e6e6e;}.cls-86{fill:#464240;}.cls-87{fill:#b33636;}.cls-88{fill:#48484d;}.cls-89{fill:#5c5049;}.cls-90{fill:#fab46c;}.cls-91{fill:#fccca2;}.cls-92{fill:#d4c3bd;}.cls-93{fill:#de9673;}.cls-94{fill:#e6d3cc;}.cls-95{fill:#ded1c5;}.cls-96{fill:#bc8551;}.cls-97{fill:#23344a;}.cls-98{fill:#214361;}.cls-99{fill:#db9c7c;}.cls-100{fill:#ea4335;}.cls-101{fill:#4285f4;}.cls-102{fill:#fbbc04;}.cls-103{fill:#0f9d58;}.cls-104,.cls-105{fill:#676c72;}.cls-105{font-size:75px;font-family:ProductSans-Regular, Product Sans;}.cls-106{letter-spacing:-0.01em;}.cls-107{letter-spacing:0em;}.cls-108{letter-spacing:-0.02em;}.cls-109{letter-spacing:0em;}.cls-110{letter-spacing:0.01em;}.cls-111{letter-spacing:-0.04em;}.cls-112{letter-spacing:-0.08em;}.cls-113{letter-spacing:-0.01em;}</style><linearGradient id="linear-gradient" x1="1452.48" y1="932.26" x2="1447.52" y2="813.27" gradientTransform="matrix(-1, 0, 0, 1, 2426.07, 0)" gradientUnits="userSpaceOnUse"><stop offset="0" stop-color="#ffebe3"/><stop offset="1" stop-color="#eddad4"/></linearGradient><linearGradient id="linear-gradient-2" x1="1391.43" y1="888.26" x2="1389.22" y2="835.08" xlink:href="#linear-gradient"/><linearGradient id="linear-gradient-3" x1="867.96" y1="752.77" x2="934.19" y2="752.77" gradientTransform="matrix(-1, 0, 0, 1, 2426.07, 0)" gradientUnits="userSpaceOnUse"><stop offset="0.01" stop-color="#3c6127"/><stop offset="1" stop-color="#639c38"/></linearGradient><linearGradient id="linear-gradient-4" x1="916.55" y1="789.72" x2="976.44" y2="789.72" xlink:href="#linear-gradient-3"/><linearGradient id="linear-gradient-5" x1="921.67" y1="798.43" x2="966.62" y2="798.43" xlink:href="#linear-gradient-3"/><linearGradient id="linear-gradient-6" x1="905.43" y1="762.26" x2="957.79" y2="762.26" xlink:href="#linear-gradient-3"/><linearGradient id="linear-gradient-7" x1="893.42" y1="837.35" x2="941.73" y2="837.35" gradientTransform="matrix(-1, 0, 0, 1, 2302.59, -176.04)" gradientUnits="userSpaceOnUse"><stop offset="0" stop-color="#ff9340"/><stop offset="1" stop-color="#ffce45"/></linearGradient><linearGradient id="linear-gradient-8" x1="893.42" y1="837.35" x2="941.73" y2="837.35" gradientTransform="matrix(-1, 0, 0, 1, 2426.07, 0)" gradientUnits="userSpaceOnUse"><stop offset="0" stop-color="#c97332"/><stop offset="1" stop-color="#ffce45"/></linearGradient><linearGradient id="linear-gradient-9" x1="565.31" y1="882.77" x2="563.04" y2="828.29" gradientTransform="matrix(1, 0, 0, 1, 0, 0)" xlink:href="#linear-gradient"/><linearGradient id="linear-gradient-10" x1="330.78" y1="741.48" x2="398.64" y2="741.48" gradientUnits="userSpaceOnUse"><stop offset="0" stop-color="#40d5e6"/><stop offset="1" stop-color="#57f"/></linearGradient><linearGradient id="linear-gradient-11" x1="380.56" y1="779.34" x2="441.92" y2="779.34" xlink:href="#linear-gradient-10"/><linearGradient id="linear-gradient-12" x1="385.8" y1="788.26" x2="431.86" y2="788.26" xlink:href="#linear-gradient-10"/><linearGradient id="linear-gradient-13" x1="369.17" y1="751.2" x2="422.81" y2="751.2" xlink:href="#linear-gradient-10"/><linearGradient id="linear-gradient-14" x1="233.39" y1="652.09" x2="282.88" y2="652.09" gradientTransform="matrix(1, 0, 0, 1, 0, 0)" xlink:href="#linear-gradient-7"/><linearGradient id="linear-gradient-15" x1="356.86" y1="828.14" x2="406.36" y2="828.14" gradientTransform="matrix(1, 0, 0, 1, 0, 0)" xlink:href="#linear-gradient-8"/></defs><title>dsc-banner4</title><g id="Layer_3" data-name="Layer 3"><path class="cls-1" d="M1769.08,831H236.45s-120.68-5.91-58.29,56.42,302.56,47.45,451.44,136.69S754.54,982,949.94,974.53s792-19.84,797.34-74.37S1834,832.26,1769.08,831Z" transform="translate(-123.48 -176.04)"/><path class="cls-2" d="M1390.17,843h-685s-53.94-2.64-26.06,25.21,135.23,21.21,201.77,61.1,55.84-18.84,143.17-22.16,354-8.87,356.37-33.24S1419.2,843.56,1390.17,843Z" transform="translate(-123.48 -176.04)"/><path class="cls-3" d="M1552.32,665.25c-5.71-2.73-11.39,15.45-11.39,15.45-9.71,12.82-23.27-4.24-22,14.93,2.32,33.56-38.62,10.55-19.73,45.58s-16.68,19.81-4.94,48-3.47,61.94,14.18,48.09c0,0,15.56-34.1,31.59-44.65s-9.6-23.07-4.59-37.4c7.29-20.81,24.85-20,12.19-42.36S1571.74,674.53,1552.32,665.25Z" transform="translate(-123.48 -176.04)"/><path class="cls-4" d="M1502.9,824.52c7.66-5.38,16.62-42.9,17.15-65.25.28-11.45,3.66-16.22,6.65-20.42,2.85-4,5.31-7.5,3.88-15.47-2.75-15.25,4.47-21.83,4.54-21.89l-.84-1c-.31.28-7.83,7.06-5,23.06,1.34,7.45-.87,10.57-3.67,14.51-2.93,4.14-6.59,9.3-6.87,21.13-.58,24-9.74,59.41-16.61,64.24Z" transform="translate(-123.48 -176.04)"/><path class="cls-5" d="M1486.86,813.58c-.73-1.64-1.47-3.34-2.32-5.12-4.37-9.23-8.25-10.75-14.66-13.27-1.57-.62-3.35-1.32-5.3-2.19-9.2-4.13-7.42-10.22-5.84-15.6.21-.75.43-1.5.62-2.24.81-3.16-.74-4.74-3.09-7.14a26.54,26.54,0,0,1-5.6-7.51c-1.84-3.84-.9-5.89.2-6.94,2.34-2.21,7.72-1.81,12.79,1h0a18.28,18.28,0,0,1,4.25,3.66c3.24,3.39,7.27,7.6,17.46,7.65,5.81,0,9,.83,10.64,2.68,1.87,2.1,1.51,5.25,1,9.6-.17,1.51-.36,3.22-.48,5.06a29.47,29.47,0,0,0,5.87,19c3.88,4.62,8.66,14.21,6.59,20.11-.86,2.48-2.79,4-5.74,4.63a16.22,16.22,0,0,1-3.24.35C1492.91,827.3,1490.3,821.39,1486.86,813.58Zm-23.8-57.93c-4.54-2.48-9.4-3-11.31-1.16-1.46,1.37-.77,3.74.06,5.47a25.32,25.32,0,0,0,5.36,7.17c2.46,2.51,4.41,4.49,3.42,8.35-.19.75-.42,1.51-.64,2.28-1.56,5.35-3,10.4,5.15,14.08,1.92.87,3.68,1.56,5.24,2.17,6.48,2.54,10.76,4.22,15.34,13.91.86,1.8,1.61,3.5,2.34,5.14,4,9,6.35,14.4,15,12.65a5.86,5.86,0,0,0,4.81-3.81c1.82-5.2-2.53-14.3-6.37-18.87a30.18,30.18,0,0,1-6.16-19.92c.11-1.87.31-3.6.48-5.12.45-4,.78-6.94-.72-8.62s-4.36-2.23-9.7-2.25c-10.72,0-15-4.49-18.36-8a17.09,17.09,0,0,0-3.94-3.42Z" transform="translate(-123.48 -176.04)"/><path class="cls-6" d="M1503.14,834.61l1.26-.07c-.06-1.18-1.66-29.18-12.9-37.38-12.33-9-16.22-18.65-18.07-25.13-2.18-7.65-13.29-9.69-13.76-9.77l-.22,1.24c.11,0,10.8,2,12.76,8.87,1.91,6.67,5.9,16.59,18.55,25.81C1501.52,806,1503.12,834.32,1503.14,834.61Z" transform="translate(-123.48 -176.04)"/><path class="cls-7" d="M1477.44,693.5c8-2.74,6.33,12.66,9.7,24.06s37.56,5,23.21,33.5,18.15,9.55,8.44,34.45S1518,837,1507.4,830.26s-5.93-38.13-16.9-41.85-12.77-8.07-1.9-18.2-28.47-20.19-18.76-40.64S1468.2,696.67,1477.44,693.5Z" transform="translate(-123.48 -176.04)"/><path class="cls-4" d="M1502.5,829.07c1-4.26,9.59-41.78,1.58-46.31-7-4-6.88-19.54-5.78-34.22,1-13-15.71-19.07-16.42-19.32l-.43,1.19c.17.06,16.49,6,15.59,18-1.13,15.07-1.25,31.07,6.42,35.41,6.08,3.44.48,33.59-2.19,44.92Z" transform="translate(-123.48 -176.04)"/><polygon class="cls-8" points="1360.86 639.67 1372.27 682.95 1397.76 682.95 1409.17 639.67 1360.86 639.67"/><path class="cls-9" d="M1484.34,815.71s25.12,4.72,25.12,43.28h11.78l11.41-43.28Z" transform="translate(-123.48 -176.04)"/><path class="cls-4" d="M1646.93,856.93a32.84,32.84,0,0,1,5,5.88c2.38,3.55,8.67,3.74,8.94,8.6s-8.56,5-13.2,3.42-5.33-6.32-8.14-7.51-4.25-2.14-4-4.46a28.46,28.46,0,0,1,1.77-6.07,20.14,20.14,0,0,0,2.76.67A23,23,0,0,0,1646.93,856.93Z" transform="translate(-123.48 -176.04)"/><path class="cls-10" d="M1615.15,725.35s1.78,10.57,3.21,17.55h0a42.09,42.09,0,0,0,1.43,5.77c.41.89,3.75,4.47,7.83,8.67,7.16,7.38,16.62,16.66,16.62,16.66l3.7-7s-8.4-9.85-14.1-16.43c-2.64-3-4.69-5.38-5.07-5.72-1.19-1.06-2.57-11.56-4.52-20.22s-5.84-13.43-5.84-13.43Z" transform="translate(-123.48 -176.04)"/><path class="cls-11" d="M1627.62,757.34c7.16,7.38,16.62,16.66,16.62,16.66l3.7-7s-8.4-9.85-14.1-16.43A12,12,0,0,0,1627.62,757.34Z" transform="translate(-123.48 -176.04)"/><rect class="cls-12" x="1663" y="791.15" width="2.82" height="68.16" transform="translate(3205.34 1474.42) rotate(-180)"/><rect class="cls-12" x="1551.72" y="791.15" width="2.82" height="68.16" transform="translate(2982.78 1474.42) rotate(-180)"/><rect class="cls-13" x="1539.45" y="787.45" width="136.94" height="4.89" transform="translate(3092.37 1403.76) rotate(-180)"/><path class="cls-4" d="M1581.69,854s-2.43,2.69-3.87,4.32-7,4.54-7,9.39c0,5.25,4.07,4.79,7.71,4.59a10,10,0,0,0,8.14-5.68c1.53-3,5.62-3.75,5.91-6.15s-1.9-6.71-1.9-6.71Z" transform="translate(-123.48 -176.04)"/><path class="cls-14" d="M1590.23,849.33l.47,4.47s-7.6,3.31-9,.24l.33-4Z" transform="translate(-123.48 -176.04)"/><path class="cls-14" d="M1646.52,853.7l.41,3.23a15.91,15.91,0,0,1-9.66-.14l-.11-2.88Z" transform="translate(-123.48 -176.04)"/><path class="cls-10" d="M1581.26,772.57c-.26.94,48.69,0,48.69,0s-13.54-9.85-14.42-12.49,3.45-18.43,4-23.57c.45-4.11,1.59-22.52-1.13-25.33s-13-6-13-6l-14.88.56a23.59,23.59,0,0,0-4.21,1.32c-1.75.82-11.79,4.4-13.42,9.41s10,21.14,10,21.14,0,.73,0,1.91h0c0,1.58.11,4,.18,6.6.07,3.38.14,7.1.14,9.82A97.6,97.6,0,0,1,1581.26,772.57Z" transform="translate(-123.48 -176.04)"/><path class="cls-15" d="M1581.26,772.57s-6.66,9.78-6.75,16.46,2.46,25.19,2.65,28.86,3.64,34.23,3.64,34.23,2.66,2.47,10.66-.63c0,0,1.76-29,2-32.09s.19-17.39,2-19.46,12.6-8.56,14-9.78,26,4.64,28.56,5.31c6.67,1.73,3.63,13.33,2.16,18.53-2.47,8.7-4.63,40.12-4.63,40.12s4.75,2,12.7.32c0,0,15.62-56.74,16.13-62.38s.74-14.95-37.75-22Z" transform="translate(-123.48 -176.04)"/><path class="cls-11" d="M1601.29,672.83s12.92-2.91,10,13.35-6.06,17.53-13.85,14.17-7.1-13.78-7.49-18.89S1597.17,673,1601.29,672.83Z" transform="translate(-123.48 -176.04)"/><path class="cls-11" d="M1604.71,709.33s-5.72,6.07-14.76.56c0,0,2-13.14,1-19.55s11.79,9.92,11.79,9.92c-.17.09-.28.7-.31,1.57a17.67,17.67,0,0,0,.14,2.61C1602.79,706.57,1603.46,708.81,1604.71,709.33Z" transform="translate(-123.48 -176.04)"/><path class="cls-11" d="M1594.36,684c-.17-1.43-3-2-3.23.19s1.29,5.92,2.36,5.55S1594.6,686,1594.36,684Z" transform="translate(-123.48 -176.04)"/><path class="cls-16" d="M1590.55,689.8s.33-5.12,2.2-5.28,2.16,1.9,2.16,1.9l1.89.36s-.6-4.49,1.27-5.27,12.1,2.47,13.6,1.15.8-10.42-1.91-11.67-10.2-4-15.69-.32c0,0-4.28-.49-4.91,3S1589.39,687.23,1590.55,689.8Z" transform="translate(-123.48 -176.04)"/><path class="cls-17" d="M1602.53,704.44c-9.33-2.88-10-8.49-10-8.58,3.07,5.27,9.9,6,9.9,6A17.67,17.67,0,0,0,1602.53,704.44Z" transform="translate(-123.48 -176.04)"/><path class="cls-11" d="M1586.13,707.11s6.83,13.6,17.86,12.72,1.88-14.54,1.38-14.67S1594.06,702.34,1586.13,707.11Z" transform="translate(-123.48 -176.04)"/><path class="cls-10" d="M1635.55,771.88s-33.81,4.17-54.29.69l39.14-4.89S1620.63,768.68,1635.55,771.88Z" transform="translate(-123.48 -176.04)"/><path class="cls-11" d="M1610.26,766.14l2.52,1.28s-.57,4-2,5.21l-2.83-.72S1608.59,767.52,1610.26,766.14Z" transform="translate(-123.48 -176.04)"/><path class="cls-10" d="M1571.14,758c.51.58,7.15,3.26,14.66,6.15h0c10.26,3.95,21.83,7.69,21.83,7.69l2.63-5.65s-12.11-6.58-20.3-11.2c-3.87-2.18-6.86-3.92-7.28-4.32-1.32-1.26-1.66-3.27-.69-6.78s3.2-19.62,3.45-21.5-.63-6.89-5.33-7.15-7.1,1.08-7.1,1.08-1.18.49-2,11.9S1570,756.57,1571.14,758Z" transform="translate(-123.48 -176.04)"/><path class="cls-18" d="M1582.93,739.5h0c0,1.58.11,4,.18,6.6,4.58-11.25,1.93-20.23,1.89-20.38C1585.5,728.78,1583,739.35,1582.93,739.5Z" transform="translate(-123.48 -176.04)"/><path class="cls-18" d="M1618.36,742.9h0a42.09,42.09,0,0,0,1.43,5.77c1.57-7.58.16-17.3.16-17.3A96.72,96.72,0,0,1,1618.36,742.9Z" transform="translate(-123.48 -176.04)"/><path class="cls-11" d="M1585.8,764.1h0c10.26,3.95,22.2,7.81,22.2,7.81l2.26-5.77s-12.11-6.58-20.3-11.2C1590,754.94,1587,756.39,1585.8,764.1Z" transform="translate(-123.48 -176.04)"/><polygon class="cls-19" points="1487.51 596.2 1535.57 595.5 1511.3 607.82 1487.51 596.2"/><polygon class="cls-20" points="1511.3 607.82 1487.51 598.6 1487.51 596.2 1513.18 605.46 1511.3 607.82"/><path class="cls-11" d="M1612.24,767.51s3-.47,5.07-1c1.61-.38,5.6.14,6.62,1.17s4.25,8.21,4.86,8.65-.31,1.45-1.39.94c0,0-1,3.14-3.42,2s-4.08-3.74-5.36-4.19-8.69-2.74-8.69-2.74S1610.32,766.74,1612.24,767.51Z" transform="translate(-123.48 -176.04)"/><path class="cls-11" d="M1623.2,767.26a22.1,22.1,0,0,1,2.43,1.34c.5.42,2.54,1.95,3,2.31s-.75,1.38-4.4-.2S1623.2,767.26,1623.2,767.26Z" transform="translate(-123.48 -176.04)"/><polygon class="cls-21" points="1511.3 607.82 1525.6 568.79 1571.67 569.54 1558.05 605.5 1511.3 607.82"/><path class="cls-12" d="M1663.82,762.1c-1.4,2.81-1,5.87,1,6.83s4.63-.53,6-3.34,1-5.87-1-6.83S1665.23,759.29,1663.82,762.1Z" transform="translate(-123.48 -176.04)"/><path class="cls-22" d="M1225.54,748.4H1252a0,0,0,0,1,0,0v6.4a0,0,0,0,1,0,0h-26.45a1.67,1.67,0,0,1-1.67-1.67v-3.06a1.67,1.67,0,0,1,1.67-1.67Z" transform="translate(2352.37 1327.15) rotate(-180)"/><path class="cls-23" d="M1221.89,754.8h26.45a0,0,0,0,1,0,0v6.4a0,0,0,0,1,0,0h-26.45a1.67,1.67,0,0,1-1.67-1.67v-3.06a1.67,1.67,0,0,1,1.67-1.67Z" transform="translate(2345.07 1339.95) rotate(-180)"/><path class="cls-10" d="M1213.36,748.4h26.45a0,0,0,0,1,0,0v6.4a0,0,0,0,1,0,0h-26.45a1.67,1.67,0,0,1-1.67-1.67v-3.06A1.67,1.67,0,0,1,1213.36,748.4Z" transform="translate(2328.03 1327.15) rotate(-180)"/><path class="cls-23" d="M1209.72,754.8h26.45a0,0,0,0,1,0,0v6.4a0,0,0,0,1,0,0h-26.45a1.67,1.67,0,0,1-1.67-1.67v-3.06A1.67,1.67,0,0,1,1209.72,754.8Z" transform="translate(2320.73 1339.95) rotate(-180)"/><path class="cls-24" d="M1213.37,749.05H1239a0,0,0,0,1,0,0v5.08a0,0,0,0,1,0,0h-25.68a1.67,1.67,0,0,1-1.67-1.67v-1.74A1.67,1.67,0,0,1,1213.37,749.05Z" transform="translate(2327.26 1327.15) rotate(-180)"/><path class="cls-24" d="M1209.71,755.55h25.68a0,0,0,0,1,0,0v4.9a0,0,0,0,1,0,0h-25.68a1.67,1.67,0,0,1-1.67-1.67v-1.56A1.67,1.67,0,0,1,1209.71,755.55Z" transform="translate(2319.96 1339.95) rotate(-180)"/><polygon class="cls-11" points="1196.64 679.38 1194.94 673.75 1187.32 674.85 1188.37 679.91 1196.64 679.38"/><polygon class="cls-11" points="1146.52 679.8 1146.04 682.87 1137.74 681.34 1138.27 676.75 1146.52 679.8"/><path class="cls-25" d="M1289.54,757.48s1.28,11,2.7,22.27c.32,2.56.65,5.14,1,7.6,1,8.1,2,15,2.45,16.2,1.12,3.25,13.51,48.21,13.51,48.21s10.54,1.09,10.95-.24c0,0-8.3-50.6-8.15-52.44s-1.66-53.85-1.66-53.85S1290.15,754.5,1289.54,757.48Z" transform="translate(-123.48 -176.04)"/><path class="cls-25" d="M1278.39,741.7s-10.86,50.86-11.79,54.75-6.69,57.45-6.69,57.45,3.38,2.37,11.49,2c0,0,12.32-56.2,13.3-58.07,3.82-7.24,17-43.14,18.89-48.16s6.94-10.09,6.94-10.09S1297.21,731.73,1278.39,741.7Z" transform="translate(-123.48 -176.04)"/><path class="cls-11" d="M1250.2,687s-7.67-4.18-8.39-4-.9.62-.2,1l7.31,4.26s-9.82-3.34-10.44-3.33c-.36,0-.75.85-.4,1.11s9.93,4.16,9.93,4.16-9.17-3.1-9.69-2.93a.72.72,0,0,0,0,1.31c.66.28,9,3.66,9,3.66s-6.79-1.81-7.14-1.39c-.22.25-.59,1,1.18,1.38s5.85,1.84,5.85,1.84Z" transform="translate(-123.48 -176.04)"/><path class="cls-11" d="M1258.34,693.22s-2.45-1.54-2.33-3.24a10.22,10.22,0,0,0-1-4c-.35-.81-.56-3.71-1.51-3.28s.12,4.79.18,5.75-3.19-1.66-4.12-1.66-4.58,5.87-2.16,7.41,5.9,1.49,6.27,1.85a17.65,17.65,0,0,0,1.72,1.19Z" transform="translate(-123.48 -176.04)"/><path class="cls-14" d="M1283.74,686.83s-5.58,14.46-6.73,14.4-20.25-9.39-20.25-9.39-3.44,5.2-2.5,5.82c1.31.86,26,18.32,27.89,17.41s2.73-12.17,2.73-12.17S1289.57,687.46,1283.74,686.83Z" transform="translate(-123.48 -176.04)"/><path class="cls-11" d="M1282.08,664.38s0,.54.09,1.37c0,.61.07,1.39.1,2.22a30.36,30.36,0,0,1-.19,6.23c-.57,2.32,9.92-7.1,9.92-7.1a115,115,0,0,1,.27-16.26C1293.06,642.27,1282.08,664.38,1282.08,664.38Z" transform="translate(-123.48 -176.04)"/><path class="cls-14" d="M1278,715.81a61.75,61.75,0,0,1,.47,14c-.12,2.32-.3,4.73-.51,7.21-.29,3.36-.65,6.85-1,10.34,0,0,7,3.68,34.9,8.17,1.11-36.14-7-73.14-7-73.14-2.07-7.84-6.37-10.68-12.85-15.58,0,0-.91.08-9.5,6.22-.62.45-3.71,6.18-5.49,12.52-3.16,11.22-2.35,17-.11,25.71.25,1,.51,2,.76,3C1277.75,714.79,1277.86,715.29,1278,715.81Z" transform="translate(-123.48 -176.04)"/><path class="cls-17" d="M1282.17,665.75c0,.61.09,1.8.12,2.64a27.73,27.73,0,0,0,5.88-5.58C1286.6,664.38,1282.17,665.75,1282.17,665.75Z" transform="translate(-123.48 -176.04)"/><path class="cls-26" d="M1292.24,779.75c.32,2.56.65,5.14,1,7.6h0c3.91-9.89,7.84-30.75,7.92-31.13C1300.59,757.7,1292.24,779.75,1292.24,779.75Z" transform="translate(-123.48 -176.04)"/><path class="cls-11" d="M1292,666.83s-13.17,14.45-16.45,25a52.12,52.12,0,0,1,6.71-18.75S1286.31,666.92,1292,666.83Z" transform="translate(-123.48 -176.04)"/><path class="cls-11" d="M1275.54,642.75s-3.61,6.13-3.62,7.41,1.54,1.29.73,2.64-2.47,3.86-1.67,4.67,2.69.42,3.08,2.17,2.61,7.07,5,7.06,10.78-4.22,11.34-5.94,3.73-11.27,4.74-13.11-16.57-10.71-18.1-7.81Z" transform="translate(-123.48 -176.04)"/><path class="cls-27" d="M1275.87,642.13s-2.62-1.27-1.68-3.86,3.16-6,8.26-4.37,9,5.14,12.49,5.71,4.34,4,1.24,10.41-4.34,9.66-4.34,9.66-1.07-5.62-2.41-5.41-3.49-3.43-3.49-3.43l-.36.94-2.38-.16s3.11-6.71,1.46-7.56S1276.13,642.88,1275.87,642.13Z" transform="translate(-123.48 -176.04)"/><path class="cls-27" d="M1283.2,651.62s-1.58,5.74-2.88,5.81-5.77.79-6.6,1.45a1.21,1.21,0,0,0-.38,1.33c.27.83,1.06,5.8-.52,7.45,0,0,1.13,1.77,6.76-.2a27,27,0,0,0,8.59-4.65s-4-7.68-2.59-11Z" transform="translate(-123.48 -176.04)"/><path class="cls-11" d="M1285.94,649.86a3,3,0,0,1,4.62-.94c2.17,1.56-.71,6.79-3,6.68S1284.73,652.58,1285.94,649.86Z" transform="translate(-123.48 -176.04)"/><path class="cls-14" d="M1299.08,696.24,1281.24,693s1-20.31,11.56-19.45S1301.9,684.18,1299.08,696.24Z" transform="translate(-123.48 -176.04)"/><path class="cls-11" d="M1254.09,747.39a9.35,9.35,0,0,1-2.82.8c-.9,0-6.42-.59-7.13.36s-6,6.29-5.3,7.1a.94.94,0,0,0,1.62,0c.36-.41,4.44-3.84,4.93-3.9,0,0-3.63,4.08-3,5.29s1.75,1,2.42,1.21,1.79,1.08,3,.54,5.83-5.57,7-6.29,6.41-3.47,6.45-3.74S1254.09,747.39,1254.09,747.39Z" transform="translate(-123.48 -176.04)"/><rect class="cls-28" x="1243.47" y="768.12" width="4.2" height="103.9" transform="translate(2367.65 1464.1) rotate(-180)"/><rect class="cls-29" x="963.15" y="585.14" width="162.89" height="6.95"/><rect class="cls-28" x="967.58" y="592.08" width="4.2" height="103.9"/><path class="cls-30" d="M1269.52,858.91s-6.26-1.32-6.48-1.52-1.52-2.7-2.5-2.28-1,3.43-2,3.93-8.54,5.42-9.48,6.33-6.6.26-7.28,1.85-.8,5.37,7.68,4.63,18.13.81,20-.16S1270.06,861.36,1269.52,858.91Z" transform="translate(-123.48 -176.04)"/><path class="cls-30" d="M1320.12,855.42s-6.39-.31-6.63-.46-1.94-2.42-2.83-1.86-.49,3.56-1.35,4.2-7.57,6.72-8.35,7.77-6.47,1.31-6.89,3,.07,5.43,8.33,3.35,18-2.11,19.68-3.36S1321.05,857.75,1320.12,855.42Z" transform="translate(-123.48 -176.04)"/><path class="cls-31" d="M1277.92,737s11.61-10.71,12.25-12.56,7.13-26.49,7.33-27.27l-19.07,32.62C1278.31,732.15,1278.13,734.56,1277.92,737Z" transform="translate(-123.48 -176.04)"/><path class="cls-14" d="M1285.39,681.06s2.53-8.68,11.7-4.8c5,2.14,5.13,8.53-2.89,30.57,0,0-5.58,15-7,16.7-5,6.05-25.73,26.66-28.27,27.4l-5.72-3.74s10.51-11.87,14.35-16.9,10.51-15.9,10.51-15.9Z" transform="translate(-123.48 -176.04)"/><polygon class="cls-32" points="1207.48 507.02 1261.27 507.26 1261.09 546.25 1261.05 554.46 1252.87 546.21 1207.3 546 1207.48 507.02"/><path class="cls-4" d="M1353.65,704.22a4.11,4.11,0,1,0,4.12-4.09A4.1,4.1,0,0,0,1353.65,704.22Z" transform="translate(-123.48 -176.04)"/><path class="cls-4" d="M1340.16,704.18a4.11,4.11,0,1,0,4.12-4.1A4.1,4.1,0,0,0,1340.16,704.18Z" transform="translate(-123.48 -176.04)"/><path class="cls-4" d="M1366.83,704.26a4.11,4.11,0,1,0,4.12-4.09A4.12,4.12,0,0,0,1366.83,704.26Z" transform="translate(-123.48 -176.04)"/><polygon class="cls-32" points="1079.48 411.25 1141.85 411.54 1141.64 456.75 1141.6 466.27 1132.12 456.7 1079.27 456.46 1079.48 411.25"/><path class="cls-4" d="M1229.27,611.83a4.77,4.77,0,1,0,4.78-4.74A4.75,4.75,0,0,0,1229.27,611.83Z" transform="translate(-123.48 -176.04)"/><path class="cls-4" d="M1213.62,611.79a4.77,4.77,0,1,0,4.78-4.75A4.76,4.76,0,0,0,1213.62,611.79Z" transform="translate(-123.48 -176.04)"/><path class="cls-4" d="M1244.55,611.88a4.77,4.77,0,1,0,4.78-4.75A4.77,4.77,0,0,0,1244.55,611.88Z" transform="translate(-123.48 -176.04)"/><polygon class="cls-33" points="959.54 429.67 1027.24 429.98 1027.02 479.05 1026.97 489.39 1016.68 479 959.32 478.74 959.54 429.67"/><path class="cls-4" d="M1111.58,632.35a5.18,5.18,0,1,0,5.19-5.15A5.17,5.17,0,0,0,1111.58,632.35Z" transform="translate(-123.48 -176.04)"/><path class="cls-4" d="M1094.6,632.3a5.17,5.17,0,1,0,5.19-5.16A5.17,5.17,0,0,0,1094.6,632.3Z" transform="translate(-123.48 -176.04)"/><path class="cls-4" d="M1128.18,632.4a5.17,5.17,0,1,0,5.18-5.15A5.16,5.16,0,0,0,1128.18,632.4Z" transform="translate(-123.48 -176.04)"/><polygon class="cls-32" points="843.33 384.06 911.03 384.38 910.8 433.45 910.75 443.78 900.47 433.4 843.1 433.13 843.33 384.06"/><path class="cls-4" d="M995.37,586.74a5.17,5.17,0,1,0,5.18-5.15A5.17,5.17,0,0,0,995.37,586.74Z" transform="translate(-123.48 -176.04)"/><path class="cls-4" d="M978.39,586.69a5.17,5.17,0,1,0,5.18-5.15A5.16,5.16,0,0,0,978.39,586.69Z" transform="translate(-123.48 -176.04)"/><path class="cls-4" d="M1012,586.8a5.17,5.17,0,1,0,5.19-5.16A5.17,5.17,0,0,0,1012,586.8Z" transform="translate(-123.48 -176.04)"/><polygon class="cls-33" points="1583 420.57 1501.76 420.94 1502.03 479.83 1502.08 492.24 1514.43 479.77 1583.28 479.46 1583 420.57"/><path class="cls-4" d="M1672.21,628.58a6.21,6.21,0,1,1-6.23-6.19A6.21,6.21,0,0,1,1672.21,628.58Z" transform="translate(-123.48 -176.04)"/><path class="cls-4" d="M1692.59,628.51a6.21,6.21,0,1,1-6.23-6.18A6.21,6.21,0,0,1,1692.59,628.51Z" transform="translate(-123.48 -176.04)"/><path class="cls-4" d="M1652.3,628.64a6.21,6.21,0,1,1-6.23-6.19A6.2,6.2,0,0,1,1652.3,628.64Z" transform="translate(-123.48 -176.04)"/><path class="cls-32" d="M1425,700.52a7.17,7.17,0,0,0,.46.75c1.46,2.23,5,6.47,13.68,12.91,2.39-10.52,2.36-16.06,2-18.71a6.69,6.69,0,0,0-.14-.86,4.9,4.9,0,0,0-.35-1.21,8.63,8.63,0,1,0-16.19,6A5.2,5.2,0,0,0,1425,700.52Zm2.53-2.28a5.38,5.38,0,1,1,6.91,3.19A5.37,5.37,0,0,1,1427.51,698.24Z" transform="translate(-123.48 -176.04)"/><path class="cls-32" d="M1313.6,612.72l9.76-4.24a1.58,1.58,0,0,0-1.26-2.9l-6.9,3-5-11a1.58,1.58,0,1,0-2.88,1.3Z" transform="translate(-123.48 -176.04)"/><path class="cls-32" d="M1297.66,594.25a19.94,19.94,0,1,1,4.85,27.78A20,20,0,0,1,1297.66,594.25Zm2.34,1.64a17.09,17.09,0,1,0,23.8-4.16A17.11,17.11,0,0,0,1300,595.89Z" transform="translate(-123.48 -176.04)"/><rect class="cls-34" x="1557.03" y="623.53" width="26.49" height="18.13" transform="translate(3111.87 762.29) rotate(168.46)"/><polygon class="cls-35" points="1461.58 462.79 1446.58 455.51 1435.63 468.09 1461.58 462.79"/><polygon class="cls-36" points="1432 450.32 1447.24 458.74 1457.95 445.03 1432 450.32"/><path class="cls-32" d="M1164.17,549.28a9.89,9.89,0,0,1,9.14,6.05,9.88,9.88,0,0,1,10.91,1c5.25,4.31,2.56,8.54,2.56,8.54-3.71,9-21.62,13.62-21.62,13.62s-11.1-14.79-8.33-24.16C1156.83,554.33,1157.38,549.35,1164.17,549.28Z" transform="translate(-123.48 -176.04)"/><path class="cls-37" d="M1679.25,714.16c-2.86-1.15-4.38-4.08-3.41-6.54a25.89,25.89,0,0,0,1-6.76,12,12,0,1,1,13.51,5.07,26.91,26.91,0,0,0-4.16,5.86,4.51,4.51,0,0,1-2.82,2.55,6,6,0,0,1-3.73,0A3.12,3.12,0,0,1,1679.25,714.16ZM1676.5,691a11,11,0,0,0,1.29,9.47l.08.13v.16a27.27,27.27,0,0,1-1.09,7.19v0c-.79,2,.49,4.33,2.85,5.27a5,5,0,0,0,3.48.16,3.47,3.47,0,0,0,2.22-2l0,0a28.7,28.7,0,0,1,4.41-6.21l.1-.1.14,0a11.05,11.05,0,1,0-13.49-14Z" transform="translate(-123.48 -176.04)"/><polygon class="cls-37" points="1559.82 535.32 1566.24 523.77 1562.85 524.83 1562 522.45 1559.97 523.53 1558.43 520.56 1554.89 533.3 1555.84 533.57 1558.71 523.23 1559.56 524.87 1561.46 523.85 1562.25 526.05 1564.18 525.45 1558.96 534.84 1559.82 535.32"/><rect class="cls-37" x="1674.79" y="712.92" width="8.54" height="3.44" transform="translate(2847.58 1827.29) rotate(-158.13)"/><rect class="cls-37" x="1674.34" y="709.59" width="11.28" height="5.54" transform="translate(2850.34 1823.08) rotate(-158.14)"/><path class="cls-11" d="M1205.85,722.66s1.93-2.5,2-4.73,2.48-5.9,3.51-6.78,8.32-7.65,9.29-7.82,1.25,1.2.5,1.86-7.12,7.31-7.12,7.31,7.46-7,8.38-7a1.34,1.34,0,0,1,1,2.21s2.18.86.43,2.67l-3.47,3.6s2.15-1.56,1.62.38c-.28,1-4.71,4.64-5.34,5.63s-5.89,5.45-5.89,5.45Z" transform="translate(-123.48 -176.04)"/><path class="cls-38" d="M1134.19,718.79s-3.31,1.29-2,17.36,7-5.48,7-5.48Z" transform="translate(-123.48 -176.04)"/><path class="cls-39" d="M1165.74,856.68s-.61,4.52-.69,5.19-6.85-.4-6.85-.4l-.55-5.37S1164.9,856.05,1165.74,856.68Z" transform="translate(-123.48 -176.04)"/><path class="cls-40" d="M1165.12,861.3l7.86,4.45c2.08,1.19,8.46,1.8,8.23,3s-2.08,4-10.7,3.93-12.77.54-13.69-.92,1.33-10.8,1.33-10.8S1160.12,862.28,1165.12,861.3Z" transform="translate(-123.48 -176.04)"/><rect class="cls-41" x="1146.93" y="764.57" width="3.79" height="105.06" transform="translate(2174.18 1458.16) rotate(-180)"/><path class="cls-42" d="M1178.46,805.94s-10.27,51.21-11.77,51.56S1156,857,1156,857s-.44-28.56.14-34.79.69-18.12.69-18.12Z" transform="translate(-123.48 -176.04)"/><path class="cls-43" d="M1208.9,724.68h0C1209,724.71,1209,724.71,1208.9,724.68Z" transform="translate(-123.48 -176.04)"/><polygon class="cls-44" points="994.67 693.25 995.66 696.04 1037.53 683.06 1035.53 677.42 994.67 693.25"/><rect class="cls-44" x="1034.21" y="635.55" width="4.76" height="45.52"/><rect class="cls-45" x="1022.56" y="633.13" width="28.07" height="2.68"/><polygon class="cls-44" points="1078.88 693.25 1077.89 696.04 1036.02 683.06 1037.86 677.06 1078.88 693.25"/><polygon class="cls-44" points="1049.38 695.74 1049.38 698.98 1036.02 683.06 1037.86 677.06 1049.38 695.74"/><path class="cls-46" d="M1206.27,873.17a3.92,3.92,0,1,1-3.91-3.92A3.91,3.91,0,0,1,1206.27,873.17Z" transform="translate(-123.48 -176.04)"/><path class="cls-46" d="M1173.19,873.17a3.92,3.92,0,1,1-3.91-3.92A3.91,3.91,0,0,1,1173.19,873.17Z" transform="translate(-123.48 -176.04)"/><path class="cls-46" d="M1122.06,873.17a3.91,3.91,0,1,1-3.91-3.92A3.91,3.91,0,0,1,1122.06,873.17Z" transform="translate(-123.48 -176.04)"/><rect class="cls-47" x="1003.53" y="622.97" width="66.5" height="10.16" rx="5.08"/><path class="cls-39" d="M1196.58,863.93l-1,5.7s-7.32-.44-7.63-1.44.8-6.32.8-6.32Z" transform="translate(-123.48 -176.04)"/><path class="cls-40" d="M1187.9,867.78s-2.3,7.78-.69,10.7,6.85,3.46,8.77,3.31,7.16-1.92,12-1.69,10.54-1,9.15-4S1205.2,874,1202,871.25a13,13,0,0,0-6.13-3.14S1195.82,870.56,1187.9,867.78Z" transform="translate(-123.48 -176.04)"/><path class="cls-48" d="M1140,782s-.93,14.43,6.22,17.09l55.75,4.29s-15.36,60.12-15.36,61.15l10.5,2s25.47-54.89,26.67-57.77c1.5-3.58,1.39-13-3-16.62s-32.55-13.7-38.08-14.06S1140,782,1140,782Z" transform="translate(-123.48 -176.04)"/><path class="cls-49" d="M1151,703.36s.21,3.73.31,8.51,13,1.63,13,1.63-.58-5.17.9-6.82S1151,703.36,1151,703.36Z" transform="translate(-123.48 -176.04)"/><path class="cls-49" d="M1166.66,680.77c.67,2,5.06,3.73,4.39,16s-5.5,11.6-9.2,11.47-10.41-1.08-14.49-10-1.08-14.87,1.11-18.7S1166.66,680.77,1166.66,680.77Z" transform="translate(-123.48 -176.04)"/><path class="cls-50" d="M1204.53,722.78l1.37-2s7.31,4.06,7,5a9,9,0,0,1-1.28,2.22Z" transform="translate(-123.48 -176.04)"/><path class="cls-51" d="M1170.08,686.65a2.67,2.67,0,0,0,1.41-1.82c.43-1.46.4-11.86-12.45-10-9.67,1.38-10.81,1.09-13.62,5.08-3.18,4.51-.74,18.71,5.63,24,0,0,7.53-2.63,9.66-9,.65-1.91-1.89-7.19,1.78-7.11,2.73.06,3.73,6.75,3.73,6.75l1.83.31S1164.64,684.8,1170.08,686.65Z" transform="translate(-123.48 -176.04)"/><path class="cls-50" d="M1164.36,713.5v-1.43s-10.48-3.14-13.06-1.65l0,1.45Z" transform="translate(-123.48 -176.04)"/><path class="cls-38" d="M1134.19,718.79c1-.57,15.87-6.69,17.14-6.92s13,1.63,13,1.63,14.56,7.76,16.73,9.68c1.94,1.72,11.74,14.71,12.12,14.25s10.62-15.15,10.62-15.15l8.39,6.15s-15.24,31.16-19.77,29-12.32-13.08-12.32-13.08-4.45,13.45-4.45,16.8,7.89,15.22,7,17c0,0-.12.11-.26.19-2.37,1.67-20.47,14-32.9,10.85-9.33-2.39-10.35-7.6-10.35-7.6s-.67-15.83-1-20.68c-.13-1.82-1-7.49-1.16-10.57C1138.7,742.77,1134.19,718.79,1134.19,718.79Z" transform="translate(-123.48 -176.04)"/><polygon class="cls-52" points="1069.73 561.39 1075.44 566.9 1072.09 558.09 1069.73 561.39"/><rect class="cls-47" x="987.99" y="552.34" width="45.86" height="63.51" rx="14.14"/><path class="cls-47" d="M1149.2,806.65c-6.76,0-12.24-2.27-16.3-6.75-9.16-10.12-7.52-27.91-7.44-28.67a2.55,2.55,0,0,1,5.07.51c0,.2-1.48,16.32,6.16,24.74,3.1,3.41,7.19,5.06,12.51,5.06a2.56,2.56,0,0,1,0,5.11Z" transform="translate(-123.48 -176.04)"/><path class="cls-11" d="M1454.85,828s3.22.56,4.45-.38a13.26,13.26,0,0,1,4-1.75c.9-.23,3.45-1.93,3.68-.83s-4.09,3-4.92,3.59,3.36,1.67,3.92,2.49-2.09,7.77-4.86,6.68-4.89-4.14-5.42-4.23a17.17,17.17,0,0,1-2-.71Z" transform="translate(-123.48 -176.04)"/><path class="cls-11" d="M1465.4,830.7s8.22,3.92,8.52,4.65,0,1.18-.76.85l-8.07-3.56s8.85,6.33,9.23,6.87c.22.32-.25,1.21-.69,1.07s-9.6-5.89-9.6-5.89,8.25,5.93,8.43,6.48a.76.76,0,0,1-1.13.81c-.64-.39-8.63-5.44-8.63-5.44s5.7,4.71,5.57,5.28c-.08.36-.45,1.14-1.88-.12s-5.15-3.87-5.15-3.87Z" transform="translate(-123.48 -176.04)"/><path class="cls-53" d="M1374.37,833.89a0,0,0,0,0,0,0h0l1.27.08c6.94.43,40.09,2.34,44.7.65a11,11,0,0,0-.35-1c-.27-.72-.54-1.4-.82-2-2.17-5.13-4.5-8.23-5.43-10.43a8.27,8.27,0,0,1-.9-3.07c-.64-5.16-.54-13.36.45-16.84,1.35-4.72,3.45-7.87,1.28-14.1a50.48,50.48,0,0,1-2.56-11.9l-7-2.75s.45,16.68-9,17.05-9.13-18.21-9.13-18.21l-7.15,2.24s-1.27,9.82-2.69,12.3-.68,9.07,1,12.9,2.7,11,2.7,15.3a13,13,0,0,1-.65,3.45c-1.37,4.6-4.5,10.91-5.23,13.59q-.08.29-.12.51c-.14.79-.24,1.32-.3,1.68A4,4,0,0,0,1374.37,833.89Z" transform="translate(-123.48 -176.04)"/><path class="cls-54" d="M1341.68,865.79c7.8.15,25.73,1.8,33.45-1a251,251,0,0,1,28.28-7.83,53.63,53.63,0,0,1,8.58-1.24c5.21-.11,10.55-4.77,14.36-7.93a18.73,18.73,0,0,1,3.76-2.68,5.85,5.85,0,0,0,2-1.26,1.52,1.52,0,0,0,.5-1c0-.75-.85-1.34-2.88-1.34-.57,0-1.15,0-1.74.07-3.54.27-7.32,1.2-9.44,1.13-2.47-.07-9.22,5.85-10.57,6.15a25.06,25.06,0,0,1-4.46.8,13.21,13.21,0,0,1-10-3,65.32,65.32,0,0,0-6.6-4.94c-5.82-3.95-12.38-7.72-12.52-7.81h0v0a10.08,10.08,0,0,1-.95,1.87,7.54,7.54,0,0,1-1.45,1.7,5,5,0,0,1-2.08,1.11,16,16,0,0,1-2,.25l-.52,0c-1.1.07-2.42.13-3.88.2l-3.72.2c-5.62.35-11.91,1-14.76,2.76-1.34.83-2.83,1.83-4.3,2.93h0c-3.81,2.82-7.5,6.28-8.24,9.13a3.7,3.7,0,0,0-.13.91C1332.23,859,1333.88,865.64,1341.68,865.79Z" transform="translate(-123.48 -176.04)"/><path class="cls-54" d="M1374.35,833.9a8.94,8.94,0,0,1-.93,1.86,7.54,7.54,0,0,1-1.45,1.7,5,5,0,0,1-2.08,1.11,19.6,19.6,0,0,1-2.55.29l20.92,11.26,27.38-.67,10.71-1.71,2-.32s5.32-3.7,6.52-4.48c-.81,0-1.58-.06-2.29-.11,0-.75-.85-1.34-2.88-1.34-.57,0-1.15,0-1.74.07-1.93-2-7.64-7-7.64-7l-46-.73Z" transform="translate(-123.48 -176.04)"/><path class="cls-55" d="M1359.74,839.26c7.81,2.16,14.34,8.08,14.34,8.08l9.79,1.77-16-10.29-.52,0c-1.1.07-2.42.13-3.88.2Z" transform="translate(-123.48 -176.04)"/><path class="cls-56" d="M1362.46,838.79c.32.08.65.17,1,.28a25.3,25.3,0,0,1,9.12,4.9,13.19,13.19,0,0,0,1.79,1.24c4.07,2.39,11.2,4.65,13.89,6.18a52.54,52.54,0,0,0,5.71,2.26h0c2.63.94,5.91,2.07,9.4,3.25,8.75,3,18.83,6.37,23.4,8.28,8.4,3.53,28.8,1.88,32,.6,2.31-.93,4.08-5.06,4.53-8.65a10.41,10.41,0,0,0-.1-3.57c-.55-2.24-3.29-4.9-6.64-6.92h0a22.77,22.77,0,0,0-6.79-2.83c-3-.67-8.53-.7-13.18-.83l-1.67,0h0c-.81,0-1.58-.06-2.29-.11-2-.13-3.55-.34-4.09-.75l-.07-.06-.12,0h0l-1.85.69-12,4.44c-5.15,4.07-11.26,2.12-13.86,1.67-5.18-.88-5.08-2.67-6.94-5.14-1.6-2.14-3.23-1.91-6.73-2.07-.55,0-1.1,0-1.63,0a10,10,0,0,1-1.52-.12h0c-3.56-.55-7.67-2.84-9.37-5a2.64,2.64,0,0,0-1-.73,5.72,5.72,0,0,0-1.25-.43l-.31-.07a19,19,0,0,0-6.34-.22C1363.35,835.19,1359.68,838.12,1362.46,838.79Z" transform="translate(-123.48 -176.04)"/><path class="cls-54" d="M1394,853.66c2.63.94,5.91,2.06,9.41,3.25,8.74,3,18.82,6.37,23.39,8.28a32.51,32.51,0,0,0,9.48,1.89h0c1.14.09,2.3.15,3.48.19h.22a101.83,101.83,0,0,0,13.53-.54h0a24.86,24.86,0,0,0,5.17-1c2.3-.93,4.08-5.06,4.52-8.65a10.19,10.19,0,0,0-.09-3.57c-.55-2.23-3.29-4.9-6.64-6.92h0a22.77,22.77,0,0,0-6.79-2.83c-3-.67-8.53-.7-13.18-.83l-1.67,0h0c-.81,0-1.58-.06-2.29-.11-2-.13-3.55-.34-4.09-.75l-.07-.06-.12,0h0l-1.85.69-12,4.44c-4.27,3.38-9.21,2.61-12.25,2l-1.61-.32a13.93,13.93,0,0,1-2.37-.58Z" transform="translate(-123.48 -176.04)"/><path class="cls-11" d="M1387.37,816.57s-15.07-2.21-17.83-2.38c-.77-.05,5.93-17.12,6.9-18.69a1.23,1.23,0,0,1,.48-.37c2.66-1.33,14.27-2,14.27-2l23.7,2.4.13.23c.76,1.41,4.06,9.16,4.94,11.32,1,2.4,5.21,14.7,7.38,15.41,4.84,1.6,25.7,10.07,26.3,10.37s7.85-.85,6.87-2.2-24.41-12.41-26.38-15.28c-1.79-2.63-6.56-17-7.34-19.35s-2.45-13.63-6.5-16.7a42.34,42.34,0,0,0-8-4.31l-.27-.12c-2.45-1-4.79-1.84-6.78-2.58l-.2-.08c-2.18-.81-3.85-1.24-3.85-1.24l-10.62-.7s-2.11.5-3.68.94l-.11,0c-2.37.68-5.57,1.63-7,2.2l-.1,0-.49.19c-2.72,1-7.86,3-8.55,5.09-.75,2.25-3,8.18-3.61,12.53s-.26,1.33-4.5,15.08c-.74,2.41-5.59,15-.29,15.12a211.6,211.6,0,0,0,22.28-.13C1386,821.33,1387.37,816.57,1387.37,816.57Z" transform="translate(-123.48 -176.04)"/><path class="cls-53" d="M1376.92,795.13a17.5,17.5,0,0,0,1.14,3.54c1.77,3.77,2.7,11,2.7,15.3a13,13,0,0,1-.65,3.45h0c16.46-5.24,32.87,1.38,32.87,1.38-.65-5.16-.66-14.18.33-17.66.56-1.95,1.25-3.64,1.71-5.39a13.83,13.83,0,0,0-.43-8.71,49.41,49.41,0,0,1-2.26-12l-.27-.12c-2.45-1-4.79-1.84-6.78-2.58l-.2-.08c0,3.11-.66,16.88-9,17.21s-9.19-14.92-9.24-18.18c-2.37.68-5.57,1.63-7,2.2l-.1,0-.49.19c-.31,2.84-1,9.63-2.1,12.07C1376.22,787.67,1376.18,791.63,1376.92,795.13Z" transform="translate(-123.48 -176.04)"/><path class="cls-57" d="M1382.73,849s-19.9-3.59-24.55-1.56-8.1,6.67-12.67,6.22-.06-2.54,3.2-3.4,5.81-4.81,14.44-4.53a74.34,74.34,0,0,1,14.42,1.75S1381.44,848.46,1382.73,849Z" transform="translate(-123.48 -176.04)"/><path class="cls-55" d="M1424,847.93l7.07-1.18s3-3.38,5.52-3.76l-1.67,0h0c-.81,0-1.58-.06-2.29-.11-2-.13-3.55-.34-4.09-.75l-.19,0h0l-1.48-.08-.37.77Z" transform="translate(-123.48 -176.04)"/><path class="cls-56" d="M1427.1,847.12a10.41,10.41,0,0,1,3.16-2.06c1.46-.45,3.8-2.71,1.15-3.38-3.34-.85-9.4,1.28-11.05,1.24a13.17,13.17,0,0,0-7,2.34c-2.32,1.64-5.18,4-7,4,0,0,.12.44,1.32.4s18.76-2,18.76-2Z" transform="translate(-123.48 -176.04)"/><path class="cls-57" d="M1397.42,847.89s3.37,3,16.42,1.7,19.5-3.41,26.32-.69,5.93,3.47,9.38,3.47-2.18-4.28-9.53-5.55-25.57,2.25-27.67,2.25S1402.09,849.87,1397.42,847.89Z" transform="translate(-123.48 -176.04)"/><path class="cls-54" d="M1391.7,856.61s21.27,8.84,44.59,10.47h0c1.15.08,2.31.15,3.48.19h.22a85.94,85.94,0,0,0,13.53-.54h0s-38.11-13.7-51.4-17.56a32.73,32.73,0,0,0-3.92-1l-.06.07-4.2,5.38Z" transform="translate(-123.48 -176.04)"/><path class="cls-11" d="M1390.59,763.65s.65,8.1-.91,10.53,1.33,5.72,7.3,4.6,5.61-4.51,5.61-4.51-1.67-5-1.18-9S1390.59,763.65,1390.59,763.65Z" transform="translate(-123.48 -176.04)"/><path class="cls-53" d="M1379.19,773.7s-7.64,2.16-8.82,4.91-4.07,11.61-4.31,14.49l11.5,2.92Z" transform="translate(-123.48 -176.04)"/><path class="cls-53" d="M1412.33,775s8,1.9,10.54,6.42,3.92,12.89,3.92,12.89l-12.63,1.7Z" transform="translate(-123.48 -176.04)"/><path class="cls-58" d="M1374.37,833.89a0,0,0,0,0,0,0h0l1.27.08,44.7.65a11,11,0,0,0-.35-1c-.27-.72-.54-1.4-.82-2l-44.31-.47q-.08.29-.12.51c-.14.79-.24,1.32-.3,1.68A4,4,0,0,0,1374.37,833.89Z" transform="translate(-123.48 -176.04)"/><path class="cls-11" d="M1392.49,813.63a41.11,41.11,0,0,0-.32-4.13c-.19-.81,1.69-1.74,1.92.29s.35,3.31.35,3.31Z" transform="translate(-123.48 -176.04)"/><path class="cls-54" d="M1395,818.07l6.14-.25a1.49,1.49,0,0,0,1.42-1.46l.16-13.44a1.48,1.48,0,0,0-1.52-1.5l-7.35.25a1.48,1.48,0,0,0-1.43,1.59l1,13.44A1.48,1.48,0,0,0,1395,818.07Z" transform="translate(-123.48 -176.04)"/><path class="cls-11" d="M1391.36,815.35s-.11-1.26,2.31-2.42c3.21-1.53,7.5-3.09,8.23-2.68,1,.58.51,1.38-1.52,2l-2.7.88s4-.38,4.86.1.94,1.57.29,1.75a16.51,16.51,0,0,1-2.18.29s1.68.06,1.85.74c.12.5.18,1.22-1.41,1.51a1.17,1.17,0,0,1-.54,2,28,28,0,0,1-6,1.72c-3.07.5-10,.13-10,.13l2.85-4.82a8,8,0,0,0,2.67-.24C1391.51,815.83,1391.36,815.35,1391.36,815.35Z" transform="translate(-123.48 -176.04)"/><polygon class="cls-11" points="1263.89 640.53 1253.29 639.02 1252.32 645.63 1263.89 640.53"/><path class="cls-11" d="M1406.5,749.24s1.12-1.32,1.53,0-.94,5.29-1.09,5.86c0,0-.68,2.21-1,1.93S1406.5,749.24,1406.5,749.24Z" transform="translate(-123.48 -176.04)"/><path class="cls-11" d="M1387,749.41s-1.12-1.32-1.54,0,1,5.28,1.1,5.85c0,0,.68,2.22,1,1.94S1387,749.41,1387,749.41Z" transform="translate(-123.48 -176.04)"/><path class="cls-11" d="M1395,736.61s-10.26,1.55-8.76,17.44,10.55,14.64,11.16,14.63,9.08.33,9.81-19.07C1407.2,749.61,1407.55,735.27,1395,736.61Z" transform="translate(-123.48 -176.04)"/><path class="cls-59" d="M1405.24,748.66s-11.39,3.33-16.84,2.27c0,0-1,2.12-1.78,2.24s-.53-3.93-.53-3.93-.27-12.92,11.62-13,9.47,14,9.47,14l-.16,2.41S1405.32,753.27,1405.24,748.66Z" transform="translate(-123.48 -176.04)"/><path class="cls-59" d="M1401.75,739.63s1.25-6.51-4.74-6.35c-5,.14-4.9,3.75-4.37,7.36S1401.82,742.21,1401.75,739.63Z" transform="translate(-123.48 -176.04)"/><path class="cls-17" d="M1400.72,767.66a8.2,8.2,0,0,1-9.3-.87,5,5,0,0,0,4.8,3.24C1400,770.08,1400.72,767.66,1400.72,767.66Z" transform="translate(-123.48 -176.04)"/><path class="cls-60" d="M1386.56,816.46a23.29,23.29,0,0,0-.61,5,2.8,2.8,0,0,1-1.43-.06,16.65,16.65,0,0,1,.69-5.13A2.1,2.1,0,0,1,1386.56,816.46Z" transform="translate(-123.48 -176.04)"/><path class="cls-60" d="M1383.85,818.8a1.61,1.61,0,1,0,1.6-1.61A1.6,1.6,0,0,0,1383.85,818.8Z" transform="translate(-123.48 -176.04)"/><path class="cls-61" d="M1039,643.46s-2.76-6-8.33-3.39-4.66,10.65-2.59,14,9.47,8.38,7.06,14.47a68.07,68.07,0,0,1-5.45,10.8s14.94-.68,16.6-8.61S1039,643.46,1039,643.46Z" transform="translate(-123.48 -176.04)"/><path class="cls-11" d="M1000.55,736.31s-1.95,1.77-1.82,3.33.28,6.46-.37,7-1.32.06-1.39-.77-.4-4.76-.87-4.65c-4.11,1-8.68,8.69-10.06,10.54-.44.59-1.41.56-1.47-.22a44.2,44.2,0,0,1,4-9.75c2.79-5,8.34-8.9,8.34-8.9Z" transform="translate(-123.48 -176.04)"/><polygon class="cls-54" points="935.11 484.82 923.69 474.57 930.25 469.09 940.54 479.88 935.11 484.82"/><polygon class="cls-62" points="934.8 483.75 924.91 474.89 930.59 470.15 939.5 479.48 934.8 483.75"/><path class="cls-63" d="M1065.1,661.06a1.76,1.76,0,0,1-1.21-2.35c.52-2-.27-2.4-.27-2.4l-6,5.47s2.91,2.67,3.8,2.78S1066,662.12,1065.1,661.06Z" transform="translate(-123.48 -176.04)"/><path class="cls-63" d="M1057.57,661.78s-3.65-2.23-4-2.56a29.76,29.76,0,0,1-2.64-2.69c-.67-.88,2-.65,2.77.26a4.29,4.29,0,0,0,2,1.37c.54.21,3.78.4,4.42,1.3S1057.57,661.78,1057.57,661.78Z" transform="translate(-123.48 -176.04)"/><path class="cls-63" d="M1062.49,655.12a.44.44,0,0,1-.79-.09c-.34-.63-.31-2.07.58-1.72S1062.49,655.12,1062.49,655.12Z" transform="translate(-123.48 -176.04)"/><path class="cls-63" d="M1061.37,653.2s-.16,1.07-.71.59-1.09-2.27-.13-2.22S1061.37,653.2,1061.37,653.2Z" transform="translate(-123.48 -176.04)"/><path class="cls-63" d="M1059.8,651.64s0,1.29-.64.92c-.48-.29-1.16-2.61-.2-2.56S1059.8,651.64,1059.8,651.64Z" transform="translate(-123.48 -176.04)"/><path class="cls-64" d="M1045.27,865.56c2.3.7,3,4.61,5,5.77s11.53,2,11.87-1-4-5.68-6-7.18-6.95-6.84-7.85-8.8a2.24,2.24,0,0,1-2.36,1c-2.36-.2-2.91-.74-2.91-.74-.38,2.36-.73,4-1,4.87A4.8,4.8,0,0,0,1045.27,865.56Z" transform="translate(-123.48 -176.04)"/><path class="cls-64" d="M1029.64,866.1c1.78,1.62,2.12,4.2,4.08,5.36a10.2,10.2,0,0,0,3,.9c2.39.43,5.43.52,6.92-.35a1.64,1.64,0,0,0,.89-1.24c.34-3-4.1-6.35-6.06-7.85-1.2-.92-2.45-3.06-3.44-5-.63-1.23-1.14-2.39-1.49-3.15l-.35-.51a1.71,1.71,0,0,1-.42.82,2.29,2.29,0,0,1-2.15.47,5.76,5.76,0,0,1-2.81-1l0,0,0,0h0c-.39,1.87-1,3.79-1.23,4.69C1025.69,862.26,1028,864.57,1029.64,866.1Z" transform="translate(-123.48 -176.04)"/><path class="cls-11" d="M1058.91,732.61s6.31,22,7.41,27.59,4.18,32.79,4.51,37.41-10.3,26.28-10.88,27.84c-2.24,6-11.41,28-11.41,28s-5.93,3.52-5.26-1.63c2-15.66,3-19.53,4.37-27.66,3.09-17.8,9.47-20.13,8.49-22.73-9.87-26.25-11.86-44.06-13.18-45.6s-1.5.79-2.27,4.2.31,26.88-1.08,35.94c-.75,4.93-2.45,16-3,22.37s-3.43,35.91-3.43,35.91-.38,1.1-4.78-1.34c-.73-.4-4.22-26.09-4.33-33.68s3.24-8.68.55-23.37c-5.77-31.5-5-36.92,1.76-59.56C1042.84,680.89,1058.91,732.61,1058.91,732.61Z" transform="translate(-123.48 -176.04)"/><path class="cls-65" d="M1001,737.73c-.37-.08,8.47-18.34,9.87-20.87,2.59-4.69,3.76-5.73,5.86-10.21s9.33-16.74,10.82-21a12.79,12.79,0,0,0,.73,1.74c3.14,6.42,4.15,14.39,4.57,21.44.32,5.44-1.14,9.66-3.13,14.11-.69,1.56-1.45,3.15-2.22,4.83-1,2.21-2.42,4.48-.47,6.49,1.76,1.81,5.2,2.18,7.51,2.48l1.68.2c5.6.6,13.19.78,18.13-1.25,6.67-2.76,5.48-11.16,6.19-17,.48-3.93,4-16.5,5.08-20.31s-.69-8.44-1.83-12.73l2.39.82c6.6,2.23,17.08,5.34,20.4,2.55,4-3.36,1-7.59-1.58-11.18-4.23-5.88-16.21-13.33-19.13-17.64a46.35,46.35,0,0,0-5.35,5l10.08,10.28c.57.66,1.21,1.35,1.86,2l.5.51h0c-1.21-.66-2.5-1.36-3.7-2h0c-.92-.53-1.79-1.06-2.53-1.56-4.66-3.1-6.45-3.15-12.2-5.44a25.74,25.74,0,0,0-15.68-.79c-3.54.9-5.82,1.44-9.26,2.22l-1.12.25c.84-.22-.78.17,0,0l-.87.22c-3.95,1-7.47,5.44-9.55,10.5-1.24,3-6.72,15.5-7.77,18.6-1.26,3.71-14.4,30.43-16.28,34.48C993.93,734.45,996.09,736.59,1001,737.73Z" transform="translate(-123.48 -176.04)"/><path class="cls-11" d="M1037,668.64s5.82,11.61,12.25,14c0,0,6.33-5.63,4.63-14C1053.83,668.71,1044.92,665.24,1037,668.64Z" transform="translate(-123.48 -176.04)"/><path class="cls-66" d="M1026.22,730.73s-10,20.73-3.28,62.79c0,0,20.41-1.91,51-4.1,0,0-13.93-56.58-14.32-60.17S1026.22,730.73,1026.22,730.73Z" transform="translate(-123.48 -176.04)"/><path class="cls-11" d="M1048.71,853a4.49,4.49,0,0,1-5.48-.73l-.23,2.3s4.07,4.09,5.27-.28Z" transform="translate(-123.48 -176.04)"/><path class="cls-11" d="M1032.35,852.65s-1.71,1.54-4.29-.76l-.33,2.57s4.25,4.14,5.45-.23Z" transform="translate(-123.48 -176.04)"/><path class="cls-65" d="M1072.42,677.49l.5.51A4.84,4.84,0,0,0,1072.42,677.49Z" transform="translate(-123.48 -176.04)"/><path class="cls-67" d="M1061.73,680.32a27.74,27.74,0,0,1,2,5.31l2.39.82C1065.21,684,1061.83,680.43,1061.73,680.32Z" transform="translate(-123.48 -176.04)"/><path class="cls-54" d="M1034.75,640.43s-3.1,1.55-2.93,6.09,4.62,8.05,6.55,7.12S1034.75,640.43,1034.75,640.43Z" transform="translate(-123.48 -176.04)"/><path class="cls-49" d="M1054.4,633.54a14,14,0,0,1,5.52,12.35c-.52,8.39-3.33,16.78-5.06,17.53s-8.77-2.39-10.22-3.16a21.63,21.63,0,0,1-5.37-4.62c-.57-1-6.64-14.29-.78-19.34S1047.39,631,1054.4,633.54Z" transform="translate(-123.48 -176.04)"/><path class="cls-49" d="M1040.27,670.89s3-7.88.29-16,11.78,6.55,11.78,6.55,0,.75,0,1.84c0,.78,0,1.73,0,2.69a33.16,33.16,0,0,0,.36,4.66C1053.2,672.78,1040.27,670.89,1040.27,670.89Z" transform="translate(-123.48 -176.04)"/><path class="cls-61" d="M1049.58,643.54A27.22,27.22,0,0,0,1060,645s1.69-14.82-13.16-14.82S1034.12,645,1034.41,647s3.75,9.24,6.93,10.91c0,0-1.88-7.63.25-9S1048.49,645.83,1049.58,643.54Z" transform="translate(-123.48 -176.04)"/><path class="cls-49" d="M1044.64,647.27c-.31-1.69-1.9-3.27-3.74-1.55s1.26,6,2.59,5.8S1045,649.51,1044.64,647.27Z" transform="translate(-123.48 -176.04)"/><path class="cls-17" d="M1052.38,665.94h0s-5.93-2-7.74-5.68a45.22,45.22,0,0,0,7.7,3C1052.34,664,1052.36,665,1052.38,665.94Z" transform="translate(-123.48 -176.04)"/><path class="cls-66" d="M1027,734.27c1.76,1.81,5.2,2.18,7.51,2.48l1.68.2c4.45-4.12,8.31-8.47,8.31-8.47l-14.73-5.6-.08.07c-.69,1.56-1.45,3.15-2.22,4.83C1026.46,730,1025,732.26,1027,734.27Z" transform="translate(-123.48 -176.04)"/></g><g id="Layer_1" data-name="Layer 1"><path class="cls-68" d="M201.09,836.41H902.83s55.26-2.7,26.69,25.83S791,884,722.82,924.83s-57.21-19.3-146.67-22.7-362.62-9.08-365.08-34S171.34,837,201.09,836.41Z" transform="translate(-123.48 -176.04)"/><path class="cls-69" d="M336.71,651.82c5.85-2.8,11.68,15.83,11.68,15.83,9.94,13.14,23.84-4.34,22.48,15.3-2.38,34.37,39.56,10.81,20.21,46.69s17.09,20.3,5.06,49.23,3.56,63.45-14.53,49.26c0,0-15.93-34.93-32.36-45.74s9.84-23.63,4.7-38.31c-7.46-21.33-25.45-20.49-12.48-43.4S316.82,661.33,336.71,651.82Z" transform="translate(-123.48 -176.04)"/><path class="cls-4" d="M387.34,815c-7.84-5.52-17-44-17.57-66.85-.28-11.72-3.74-16.61-6.8-20.92-2.93-4.12-5.45-7.68-4-15.85,2.81-15.61-4.58-22.35-4.65-22.42l.85-1c.33.29,8,7.25,5.08,23.63-1.38,7.64.89,10.83,3.75,14.87,3,4.24,6.76,9.52,7.05,21.64.59,24.57,10,60.86,17,65.82Z" transform="translate(-123.48 -176.04)"/><path class="cls-70" d="M390.27,817.84a17,17,0,0,1-3.31-.36c-3-.61-5-2.21-5.89-4.74-2.12-6,2.78-15.87,6.76-20.61a30.23,30.23,0,0,0,6-19.48c-.12-1.89-.32-3.64-.49-5.18-.5-4.46-.86-7.68,1.06-9.84,1.68-1.89,4.94-2.72,10.89-2.74,10.44,0,14.57-4.38,17.88-7.85a19.21,19.21,0,0,1,4.36-3.75h0c5.2-2.84,10.71-3.25,13.1-1,1.13,1.08,2.09,3.18.21,7.11a27.23,27.23,0,0,1-5.73,7.69c-2.41,2.46-4,4.09-3.18,7.32.2.76.42,1.53.65,2.3,1.61,5.5,3.43,11.74-6,16-2,.89-3.82,1.61-5.42,2.24-6.58,2.58-10.55,4.14-15,13.59-.86,1.83-1.63,3.57-2.37,5.25C400.25,811.78,397.57,817.84,390.27,817.84Zm37.89-73.41a18,18,0,0,0-4,3.51c-3.48,3.65-7.82,8.19-18.81,8.24-5.47,0-8.54.74-9.94,2.32s-1.19,4.7-.73,8.83c.17,1.55.37,3.32.49,5.24a31,31,0,0,1-6.31,20.4c-3.93,4.68-8.39,14-6.53,19.34a6,6,0,0,0,4.93,3.9c8.87,1.79,11.31-3.76,15.37-13,.75-1.68,1.52-3.43,2.39-5.27,4.7-9.92,9.08-11.65,15.72-14.25,1.6-.62,3.4-1.33,5.37-2.22,8.39-3.77,6.88-9,5.27-14.43-.23-.78-.45-1.56-.65-2.33-1-4,1-6,3.5-8.55a26,26,0,0,0,5.49-7.35c.85-1.78,1.56-4.2.07-5.61-2-1.86-6.94-1.34-11.59,1.19Z" transform="translate(-123.48 -176.04)"/><path class="cls-71" d="M387.1,825.32l-1.3-.06c.07-1.22,1.7-29.9,13.22-38.3,12.63-9.21,16.62-19.11,18.51-25.75,2.24-7.83,13.62-9.92,14.1-10l.23,1.28c-.11,0-11.07,2-13.08,9.09-1.95,6.82-6,17-19,26.44C388.76,796,387.11,825,387.1,825.32Z" transform="translate(-123.48 -176.04)"/><path class="cls-72" d="M413.43,680.77c-8.18-2.81-6.48,13-9.94,24.64S365,710.5,379.71,739.74s-18.59,9.77-8.65,35.28.87,52.79,11.67,45.85,6.08-39.06,17.32-42.88,13.07-8.26,1.94-18.64,29.17-20.68,19.22-41.63S422.89,684,413.43,680.77Z" transform="translate(-123.48 -176.04)"/><path class="cls-4" d="M387.75,819.65c-1-4.37-9.82-42.8-1.62-47.44,7.23-4.1,7.05-20,5.93-35.06-1-13.31,16.09-19.53,16.82-19.79l.44,1.22c-.17.06-16.9,6.15-16,18.48,1.16,15.44,1.28,31.83-6.58,36.28-6.23,3.52-.49,34.41,2.24,46Z" transform="translate(-123.48 -176.04)"/><polygon class="cls-73" points="282.88 629.92 271.19 674.26 245.07 674.26 233.38 629.92 282.88 629.92"/><path class="cls-74" d="M406.36,806s-25.73,4.83-25.73,44.34H368.55L356.86,806Z" transform="translate(-123.48 -176.04)"/><polygon class="cls-32" points="435.01 492.26 379.57 492.51 379.75 532.7 379.79 541.16 388.22 532.66 435.19 532.44 435.01 492.26"/><path class="cls-4" d="M535.1,690.11a4.24,4.24,0,1,1-4.25-4.22A4.24,4.24,0,0,1,535.1,690.11Z" transform="translate(-123.48 -176.04)"/><path class="cls-4" d="M549,690.07a4.23,4.23,0,1,1-4.24-4.22A4.23,4.23,0,0,1,549,690.07Z" transform="translate(-123.48 -176.04)"/><path class="cls-4" d="M521.51,690.16a4.24,4.24,0,1,1-4.25-4.22A4.22,4.22,0,0,1,521.51,690.16Z" transform="translate(-123.48 -176.04)"/><polygon class="cls-33" points="418.55 382.41 473.99 382.66 473.81 422.85 473.77 431.31 465.34 422.81 418.37 422.59 418.55 382.41"/><path class="cls-4" d="M565.42,580.26a4.24,4.24,0,1,0,4.25-4.22A4.23,4.23,0,0,0,565.42,580.26Z" transform="translate(-123.48 -176.04)"/><path class="cls-4" d="M551.51,580.22a4.24,4.24,0,1,0,4.25-4.22A4.25,4.25,0,0,0,551.51,580.22Z" transform="translate(-123.48 -176.04)"/><path class="cls-4" d="M579,580.31a4.24,4.24,0,1,0,4.24-4.23A4.23,4.23,0,0,0,579,580.31Z" transform="translate(-123.48 -176.04)"/><polygon class="cls-32" points="680.14 371.39 601.32 371.75 601.58 428.88 601.63 440.92 613.61 428.83 680.4 428.52 680.14 371.39"/><path class="cls-4" d="M770.37,578.44a6,6,0,1,1-6-6A6,6,0,0,1,770.37,578.44Z" transform="translate(-123.48 -176.04)"/><path class="cls-4" d="M790.14,578.38a6,6,0,1,1-6-6A6,6,0,0,1,790.14,578.38Z" transform="translate(-123.48 -176.04)"/><path class="cls-4" d="M751.05,578.51a6,6,0,1,1-6-6A6,6,0,0,1,751.05,578.51Z" transform="translate(-123.48 -176.04)"/><polygon class="cls-33" points="807.49 413.56 738.14 413.88 738.37 464.15 738.41 474.74 748.96 464.1 807.72 463.83 807.49 413.56"/><path class="cls-4" d="M901.71,616.89a5.3,5.3,0,1,1-5.31-5.28A5.3,5.3,0,0,1,901.71,616.89Z" transform="translate(-123.48 -176.04)"/><path class="cls-4" d="M919.11,616.84a5.3,5.3,0,1,1-5.31-5.28A5.3,5.3,0,0,1,919.11,616.84Z" transform="translate(-123.48 -176.04)"/><path class="cls-4" d="M884.71,616.94a5.3,5.3,0,1,1-5.31-5.28A5.3,5.3,0,0,1,884.71,616.94Z" transform="translate(-123.48 -176.04)"/><polygon class="cls-33" points="42.66 413.37 125.89 413.75 125.62 474.08 125.56 486.79 112.91 474.02 42.38 473.7 42.66 413.37"/><path class="cls-4" d="M201.25,622.16a6.36,6.36,0,1,0,6.38-6.34A6.36,6.36,0,0,0,201.25,622.16Z" transform="translate(-123.48 -176.04)"/><path class="cls-4" d="M180.38,622.09a6.36,6.36,0,1,0,6.37-6.33A6.34,6.34,0,0,0,180.38,622.09Z" transform="translate(-123.48 -176.04)"/><path class="cls-4" d="M221.65,622.23a6.36,6.36,0,1,0,6.38-6.34A6.35,6.35,0,0,0,221.65,622.23Z" transform="translate(-123.48 -176.04)"/><path class="cls-32" d="M464.27,672.49a8.85,8.85,0,0,0-16.6-6.12,5.39,5.39,0,0,0-.35,1.25,8.49,8.49,0,0,0-.14.88c-.35,2.71-.39,8.39,2.07,19.16,8.85-6.6,12.52-10.94,14-13.23a6.45,6.45,0,0,0,.47-.76A5.09,5.09,0,0,0,464.27,672.49Zm-10.21,2.11a5.51,5.51,0,1,1,7.08-3.26A5.52,5.52,0,0,1,454.06,674.6Z" transform="translate(-123.48 -176.04)"/><path class="cls-32" d="M843.6,549.59l-10-4.34a1.62,1.62,0,1,1,1.29-3l7.06,3.07,5.11-11.3a1.61,1.61,0,0,1,2.14-.81,1.62,1.62,0,0,1,.81,2.14Z" transform="translate(-123.48 -176.04)"/><path class="cls-32" d="M855,559.13a20.42,20.42,0,1,1,5-28.45A20.45,20.45,0,0,1,855,559.13Zm-21.81-31a17.51,17.51,0,1,0,24.39,4.26A17.53,17.53,0,0,0,833.15,528.09Z" transform="translate(-123.48 -176.04)"/><rect class="cls-34" x="405.9" y="620.85" width="27.13" height="18.58" transform="translate(11.08 -247.23) rotate(11.54)"/><polygon class="cls-35" points="280.83 460.49 296.2 453.02 307.42 465.92 280.83 460.49"/><polygon class="cls-36" points="311.14 447.71 295.53 456.34 284.55 442.28 311.14 447.71"/><path class="cls-32" d="M802,631.35a10.11,10.11,0,0,0-9.36,6.2s-5.8-3.39-11.18,1-2.62,8.74-2.62,8.74c3.8,9.27,22.15,14,22.15,14s11.36-15.14,8.52-24.75C809.51,636.52,809,631.42,802,631.35Z" transform="translate(-123.48 -176.04)"/><path class="cls-37" d="M328.4,628a6.16,6.16,0,0,1-3.82,0,4.59,4.59,0,0,1-2.89-2.61,27.71,27.71,0,0,0-4.26-6,12.34,12.34,0,1,1,13.84-5.2,26.58,26.58,0,0,0,1.06,6.93c1,2.52-.56,5.52-3.49,6.7Zm-11-31.2a11.32,11.32,0,0,0,.44,21.68l.14,0,.1.11A29,29,0,0,1,322.6,625l0,0a3.57,3.57,0,0,0,2.28,2,5.16,5.16,0,0,0,3.56-.16c2.42-1,3.73-3.39,2.92-5.41h0v0a27.7,27.7,0,0,1-1.11-7.37v-.16l.09-.13a11.32,11.32,0,0,0-12.94-17Z" transform="translate(-123.48 -176.04)"/><polygon class="cls-37" points="201.21 448.92 194.63 437.09 198.1 438.18 198.98 435.74 201.05 436.84 202.64 433.8 206.26 446.85 205.29 447.13 202.35 436.54 201.48 438.21 199.53 437.18 198.72 439.43 196.74 438.81 202.09 448.43 201.21 448.92"/><rect class="cls-37" x="324.66" y="626.56" width="8.75" height="3.52" transform="translate(-333.85 -8.26) rotate(-21.87)"/><rect class="cls-37" x="322.31" y="623.14" width="11.56" height="5.67" transform="translate(-333.05 -8.77) rotate(-21.87)"/><path class="cls-65" d="M926.06,742.4c0,69.59-2,83.21-19.45,98.8-6.84,6.1-19.43,18.79-55.74,25.1a271.82,271.82,0,0,1-39.6,3.62,133,133,0,0,1-17.61-.65,93.23,93.23,0,0,1-12.46-2.18c-39.91-10-42.89-44.2-25.43-73A165.19,165.19,0,0,1,771.21,773c8.55-10.08,17.71-19,26-27.4,7.65-7.7,14.57-14.9,19.6-22a55,55,0,0,0,5.26-9c.33-.71.65-1.41,1-2.1,1.07-2.27,2.18-4.44,3.29-6.52,2.1-3.9,4.23-7.47,6.29-10.67,1.65-2.55,3.24-4.86,4.72-6.91a114.16,114.16,0,0,1,8.88-11s.48-.22,1.35-.58c.46-.2,1-.43,1.73-.69l.87-.33.95-.35,1-.33,1.21-.4.75-.24.46-.15.18-.05a79.21,79.21,0,0,1,20-3.52C897.65,670,926.09,681.26,926.06,742.4Z" transform="translate(-123.48 -176.04)"/><path class="cls-75" d="M833.22,847.16a42.78,42.78,0,0,0,1.33,6.72c.76,2.06,4.87,6.81,3.13,11.37-1.88,5-10.11.18-13.47-1.33s-2.59-4.25-2.94-7.6-2-3.45-1.39-5.81,4.27-6.87,4.27-6.87Z" transform="translate(-123.48 -176.04)"/><path class="cls-11" d="M825.73,841.2s-2.1,2.95-2,3,9,5.53,9.64,3.76a18,18,0,0,0,.71-3.44Z" transform="translate(-123.48 -176.04)"/><path class="cls-75" d="M795.35,850.46a33.35,33.35,0,0,0-5.19,6.08c-2.46,3.68-9,3.88-9.26,8.91s8.86,5.18,13.66,3.54,5.53-6.55,8.43-7.78,4.41-2.22,4.19-4.61a29,29,0,0,0-1.83-6.29,20.3,20.3,0,0,1-2.86.69A23.65,23.65,0,0,1,795.35,850.46Z" transform="translate(-123.48 -176.04)"/><path class="cls-76" d="M828.25,714.22s-1.84,10.94-3.32,18.16h0a43.19,43.19,0,0,1-1.49,6c-.42.92-3.87,4.63-8.1,9-7.41,7.64-17.21,17.25-17.21,17.25l-3.83-7.27s8.7-10.2,14.6-17c2.73-3.15,4.86-5.57,5.25-5.92,1.23-1.1,2.67-12,4.68-20.93s6-13.91,6-13.91Z" transform="translate(-123.48 -176.04)"/><path class="cls-11" d="M815.34,747.34c-7.41,7.64-17.21,17.25-17.21,17.25l-3.83-7.27s8.7-10.2,14.6-17A12.36,12.36,0,0,1,815.34,747.34Z" transform="translate(-123.48 -176.04)"/><path class="cls-11" d="M795.78,847.11l-.43,3.35a16.52,16.52,0,0,0,10-.15l.11-3Z" transform="translate(-123.48 -176.04)"/><path class="cls-76" d="M863.34,763.11c.28,1-50.41,0-50.41,0s14-10.2,14.93-12.93-3.57-19.08-4.16-24.41c-.46-4.26-1.64-23.31,1.17-26.22s13.5-6.23,13.5-6.23l15.41.57a24.38,24.38,0,0,1,4.36,1.37c1.82.85,12.21,4.55,13.9,9.74s-10.37,21.89-10.37,21.89,0,.75-.06,2h0c-.05,1.64-.12,4.13-.18,6.84-.08,3.5-.15,7.35-.15,10.17A100.9,100.9,0,0,0,863.34,763.11Z" transform="translate(-123.48 -176.04)"/><path class="cls-25" d="M863.34,763.11s6.9,10.13,7,17-12.23,30.07-14.1,33.38c-5.61,10-21,31.44-21,31.44s-2.66-.07-10.93-3.29c0,0,10.23-28.37,11.53-31.31,5.5-12.49,8.57-21.35,6.72-23.5s-6.89-4.29-8.35-5.55-26.9,4.81-29.57,5.5c-6.9,1.79-3.76,13.8-2.23,19.19,2.56,9,4.79,41.54,4.79,41.54s-4.92,2.09-13.15.32c0,0-16.17-58.74-16.69-64.58s-.78-15.48,39.08-22.8Z" transform="translate(-123.48 -176.04)"/><path class="cls-11" d="M842.6,659.84s-13.37-3-10.32,13.82,6.27,18.15,14.34,14.67,7.35-14.27,7.75-19.56S846.87,660,842.6,659.84Z" transform="translate(-123.48 -176.04)"/><path class="cls-11" d="M839.06,697.64s5.93,6.28,15.29.57c0,0-2.1-13.61-1-20.24s-12.21,10.27-12.21,10.27c.18.09.29.73.32,1.63a18.79,18.79,0,0,1-.14,2.69C841,694.77,840.36,697.09,839.06,697.64Z" transform="translate(-123.48 -176.04)"/><path class="cls-16" d="M853.72,677.41s-.34-5.3-2.28-5.47-2.23,2-2.23,2l-2,.37s.62-4.65-1.32-5.46-12.53,2.56-14.08,1.19-.82-10.79,2-12.08,10.56-4.18,16.24-.33c0,0,4.43-.51,5.08,3.07S854.93,674.75,853.72,677.41Z" transform="translate(-123.48 -176.04)"/><path class="cls-17" d="M841.32,692.56c9.66-3,10.38-8.79,10.39-8.88-3.18,5.46-10.25,6.19-10.25,6.19A18.79,18.79,0,0,1,841.32,692.56Z" transform="translate(-123.48 -176.04)"/><path class="cls-11" d="M858.3,695.34s-7.07,14.07-18.5,13.17-1.95-15.06-1.43-15.19S850.09,690.4,858.3,695.34Z" transform="translate(-123.48 -176.04)"/><path class="cls-76" d="M807.13,762.4s35,4.31,56.21.71l-40.52-5.06S822.58,759.08,807.13,762.4Z" transform="translate(-123.48 -176.04)"/><path class="cls-11" d="M833.31,756.45l-2.61,1.33s.6,4.14,2,5.39l2.92-.74S835,757.88,833.31,756.45Z" transform="translate(-123.48 -176.04)"/><path class="cls-76" d="M873.82,748c-.52.61-7.41,3.37-15.18,6.37h0c-10.62,4.09-22.6,8-22.6,8l-2.73-5.85s12.55-6.81,21-11.59c4-2.26,7.1-4.07,7.54-4.48,1.37-1.3,1.72-3.38.72-7s-3.31-20.32-3.57-22.27.64-7.14,5.51-7.4,7.35,1.12,7.35,1.12,1.22.5,2.13,12.32S875.05,746.55,873.82,748Z" transform="translate(-123.48 -176.04)"/><path class="cls-77" d="M861.61,728.87h0c-.05,1.64-.12,4.13-.18,6.84-4.75-11.65-2-20.94-2-21.1C859,717.77,861.57,728.72,861.61,728.87Z" transform="translate(-123.48 -176.04)"/><path class="cls-77" d="M824.93,732.38h0a43.19,43.19,0,0,1-1.49,6c-1.62-7.85-.16-17.9-.16-17.9A100,100,0,0,0,824.93,732.38Z" transform="translate(-123.48 -176.04)"/><path class="cls-11" d="M858.64,754.34h0c-10.62,4.09-23,8.09-23,8.09l-2.34-6s12.55-6.81,21-11.59C854.33,744.86,857.42,746.36,858.64,754.34Z" transform="translate(-123.48 -176.04)"/><polygon class="cls-78" points="709.08 586.73 659.32 586 684.44 598.75 709.08 586.73"/><polygon class="cls-25" points="684.44 598.75 709.08 589.21 709.08 586.73 682.5 596.32 684.44 598.75"/><path class="cls-11" d="M831.27,757.87s-3.11-.49-5.26-1c-1.66-.39-5.79.15-6.85,1.21s-4.4,8.51-5,9,.32,1.5,1.43,1c0,0,1,3.26,3.55,2s4.23-3.88,5.55-4.34,9-2.83,9-2.83S833.25,757.07,831.27,757.87Z" transform="translate(-123.48 -176.04)"/><path class="cls-11" d="M819.92,757.61A21.39,21.39,0,0,0,817.4,759c-.52.43-2.63,2-3.14,2.39s.77,1.42,4.55-.21S819.92,757.61,819.92,757.61Z" transform="translate(-123.48 -176.04)"/><polygon class="cls-25" points="684.44 598.75 669.64 558.35 621.94 559.13 636.04 596.36 684.44 598.75"/><path class="cls-79" d="M777.86,752.26c1.45,2.92,1,6.08-1,7.08s-4.8-.55-6.26-3.46-1-6.08,1-7.08S776.4,749.35,777.86,752.26Z" transform="translate(-123.48 -176.04)"/><path class="cls-11" d="M849.25,671.67c.17-1.49,3.11-2,3.34.19s-1.33,6.14-2.44,5.75S849,673.71,849.25,671.67Z" transform="translate(-123.48 -176.04)"/><path class="cls-80" d="M555,832.65C554.68,835,540.46,845,537.67,847c-2.25,1.6-4.2,2.33-7.6,3.61h0c-7.72,2-56.13,16.47-56.13,16.47a6.6,6.6,0,0,0-.48-1.47c-1.81.72-3.67,1.19-4.85,1.56-1.81.56-16.11,1-19,1.58s-8.79,1.46-11.16-.79,1.47-7.1,4.74-8.34,15.2-1.58,17.34-1.8,5-1,6.31-.57c.43.15,2.32-.41,4.7-1.23-.06-.88-.07-1.43-.07-1.43l12.71-3.67-2.35-22.5s5.53-20.85,27.63-5c0,0,4.93,1.45,6.62,1.9a1.85,1.85,0,0,0,.56,0c3.37-.26,17.86-4.64,23.09-4.64,5.64,0,7.44-.33,9.47.68S555.35,830.28,555,832.65Z" transform="translate(-123.48 -176.04)"/><path class="cls-80" d="M532.38,867.91c-2.37,2.25-8.23,1.35-11.15.79s-17.24-1-19-1.58-5.19-1.35-7.55-2.93a6.91,6.91,0,0,0-1.27-.55h0l-3.58,2.58-49.74-15.84a17.67,17.67,0,0,1-6.92-3.43c-2.6-2.25-17-11.94-17.35-14.3s3.83-10.26,5.85-11.27,3.83-.68,9.47-.68,22,5.07,23.66,4.62a24.38,24.38,0,0,0,3.86-1.83c1.81-1,3.5-2,3.5-2,24.19-10.8,26.89,6.88,26.89,6.88l-1.44,21.81s2,1,4.64,2.25l12,3.39L502.63,857a3,3,0,0,0,1.36.25c1.35-.45,4.17.34,6.31.57s14.08.56,17.35,1.8S534.74,865.65,532.38,867.91Z" transform="translate(-123.48 -176.04)"/><path class="cls-81" d="M458.62,823.49c1.67.11,12.95,6.64,15.62,8.2-4.07-2.12-19.48-6.37-19.48-6.37A24.38,24.38,0,0,0,458.62,823.49Z" transform="translate(-123.48 -176.04)"/><path class="cls-81" d="M516.6,825.34s-19.42,4.71-23,6.69c.16-.12,10.23-7.78,15.52-8.8,0,0,5.2,1.64,6.89,2.09a1.85,1.85,0,0,0,.56,0Z" transform="translate(-123.48 -176.04)"/><path class="cls-11" d="M532.38,867.91c-2.37,2.25-8.23,1.35-11.15.79s-17.24-1-19-1.58l-1.89-.56h0a21.3,21.3,0,0,1-5.66-2.37,6.91,6.91,0,0,0-1.27-.55l9-6.5.25-.19a3,3,0,0,0,1.36.25c1.35-.45,4.17.34,6.31.57s14.08.56,17.35,1.8S534.74,865.65,532.38,867.91Z" transform="translate(-123.48 -176.04)"/><path class="cls-4" d="M532.38,867.91c-2.37,2.25-8.23,1.35-11.15.79s-17.24-1-19-1.58l-1.89-.56h0a9.5,9.5,0,0,0,2.08-9.42l.25-.19a3,3,0,0,0,1.36.25c1.35-.45,4.17.34,6.31.57s14.08.56,17.35,1.8S534.74,865.65,532.38,867.91Z" transform="translate(-123.48 -176.04)"/><path class="cls-10" d="M463.56,828.46c0,.06,0,.1,0,.13C463.32,828.76,463.35,828.69,463.56,828.46Z" transform="translate(-123.48 -176.04)"/><path class="cls-82" d="M528.67,802.12c-.19-.38-10.45-16.53-13.23-23.89s-9.46-10.74-12.62-11.79c-1.12-.38-3.13-1-5.24-1.71-3.81-1.24-8-2.57-8-2.57H476.46s-4.55,1.52-9.39,3.22h0c-4.46,1.57-9.15,3.27-10.74,4.07-3.3,1.65-8.86,13.44-10,14.79s-9.79,17.41-11,23.58c-1,4.8,27.48,18.84,28.26,20.64.9-1,5.05-5,5.05-5s-1.33-.84-3.2-2.07c7.62.35,26.24-.31,28.92-.17a14.39,14.39,0,0,0,1.72,0h0c.82.6,6.16,5.31,6.16,5.31s13.14-5.45,19.18-11.56C530,806.28,529.62,804,528.67,802.12ZM453.94,812.8c-2.82-3.38-6.69-5.43-5.72-6.93s9.24-15.77,9.24-15.77,4.28,9.39,5.48,14.27,1.11,7.12.6,8.64a22.88,22.88,0,0,0-1.23,6.34C459,817.05,455.23,814.35,453.94,812.8Zm58.11-1.62c-1.1,1.26-5.47,4-9.4,6.32-.3-2.72-.75-7-.8-8.55-.08-2.33.9-9,2.1-11.57s2-9.54,2-9.54,9.95,13.52,11.53,14.95S515.78,807,512.05,811.18Z" transform="translate(-123.48 -176.04)"/><path class="cls-11" d="M484.6,726s10.28,1.62,8.71,17.7-10.63,14.77-11.24,14.75-9.11.3-9.77-19.34C472.3,739.14,472,724.62,484.6,726Z" transform="translate(-123.48 -176.04)"/><path class="cls-11" d="M493.47,739.19s1.13-1.2,1.54,0-1.53,6.64-1.61,6.9c0,0-.2.47-.47.21S493.47,739.19,493.47,739.19Z" transform="translate(-123.48 -176.04)"/><path class="cls-11" d="M472.58,739s-1.11-1.23-1.54,0,1.39,6.68,1.47,6.93c0,0,.2.48.47.22S472.58,739,472.58,739Z" transform="translate(-123.48 -176.04)"/><path class="cls-27" d="M493.47,741.66l-1.47,2a38.52,38.52,0,0,0-.2-5c-.23-.68-.6-2.75-.79-3.23s-8.83-2.91-16.45.7c0,0,.33,3.11-.4,3.38s-.37,5-.37,5l-1.21-1.36s-1.85-12.38-1.39-13.67,1.91-9,17.55-4.44c0,0,4.87-1,5.85,2.34S493.47,741.66,493.47,741.66Z" transform="translate(-123.48 -176.04)"/><path class="cls-83" d="M469.48,844.5s-15.74-9.43-22.61-10.91c-6.5-1.41-8.86-3.84-8.86-3.84s10.32,0,17.2,4.89C459.87,838,469.48,844.5,469.48,844.5Z" transform="translate(-123.48 -176.04)"/><path class="cls-83" d="M483.46,851.07S510.82,836.7,522,833.59c6.4-1.79,8.86-3.84,8.86-3.84s-16.92,1.66-27.21,7.85C498.75,840.55,483.46,851.07,483.46,851.07Z" transform="translate(-123.48 -176.04)"/><path class="cls-11" d="M473.46,865.56c-1.81.72-3.67,1.19-4.85,1.56-1.81.56-16.11,1-19,1.58s-8.79,1.46-11.16-.79,1.47-7.1,4.74-8.34,15.2-1.58,17.34-1.8,5-1,6.31-.57c.43.15,2.32-.41,4.7-1.23C471.57,857.4,473.46,865.56,473.46,865.56Z" transform="translate(-123.48 -176.04)"/><path class="cls-80" d="M483.46,864.2l26.9-8L505,854.61S483.54,862.41,483.46,864.2Z" transform="translate(-123.48 -176.04)"/><polygon class="cls-83" points="359.98 688.16 372.57 684.32 363.84 689.39 359.98 688.16"/><path class="cls-84" d="M474.81,832l-.57-.34A4.51,4.51,0,0,1,474.81,832Z" transform="translate(-123.48 -176.04)"/><path class="cls-4" d="M468.61,867.12c-1.81.56-16.11,1-19,1.58s-8.79,1.46-11.16-.79,1.47-7.1,4.74-8.34,15.2-1.58,17.34-1.8,5-1,6.31-.57A7.43,7.43,0,0,0,468.61,867.12Z" transform="translate(-123.48 -176.04)"/><path class="cls-84" d="M459.71,829.75l-4.14-23.58,53.6-1.24-3.45,23.21s-17.11,6.26-22.92,9.92C482.8,838.06,468.12,832,459.71,829.75Z" transform="translate(-123.48 -176.04)"/><path class="cls-85" d="M486,820.39a3,3,0,1,1-3-3.53A3.3,3.3,0,0,1,486,820.39Z" transform="translate(-123.48 -176.04)"/><path class="cls-11" d="M489.74,762.2v0c-.65-1.43-.33-8.41-.33-8.41s-13.09-3.34-12.72-.79-1.13,9.5-1.13,9.5l-6.71,2.3S476,784,484.22,781.5s11.33-17.43,11.33-17.43Z" transform="translate(-123.48 -176.04)"/><path class="cls-17" d="M476.93,755.85a7.61,7.61,0,0,0,5.71,2.66c2.41,0,4.05-.59,6.45-2.93,0,0-.95,4.36-6.44,4.78C482.65,760.36,478.74,760.92,476.93,755.85Z" transform="translate(-123.48 -176.04)"/><path class="cls-86" d="M702.36,610.87s7.61-.8,10.35,6.55,5.32,9.75,5.64,13.61c1.31,15.61,8.6,12.08,6.55,21.08s-3.47,10.36-3.47,10.36L704,659.05l-17.66.06s6.91-3.45,5.37-10.8-5.37-19.39-3.2-27.59S697.81,611.5,702.36,610.87Z" transform="translate(-123.48 -176.04)"/><path class="cls-65" d="M697.54,852.09s-5.46,7.51-4.68,8.72,6.74,1.38,10.36,0,3.72-10.33,5.36-14.17c.69-1.61-.78-6.36-2.85-6.7a9.2,9.2,0,0,0-4.49.74S703.35,846.15,697.54,852.09Z" transform="translate(-123.48 -176.04)"/><path class="cls-11" d="M701.24,840.68a50.05,50.05,0,0,1-1.13,6.05c-.69,2.5-4.4,8.2-4.23,8.9s4.84,1.31,6.74-.47,3.37-6.94,3.54-10.06a16.35,16.35,0,0,0-.43-5.16S703.05,838.78,701.24,840.68Z" transform="translate(-123.48 -176.04)"/><polygon class="cls-65" points="585.1 670.6 585.1 678.59 584.07 678.59 584.07 672.41 585.1 670.6"/><path class="cls-65" d="M711.84,852.09s-5.46,7.51-4.68,8.72,6.74,1.38,10.37,0,3.71-10.33,5.35-14.17c.69-1.61-.78-6.36-2.85-6.7a9.2,9.2,0,0,0-4.49.74S717.65,846.15,711.84,852.09Z" transform="translate(-123.48 -176.04)"/><path class="cls-11" d="M715.54,840.68a51.31,51.31,0,0,1-1.12,6.05c-.7,2.5-4.41,8.2-4.24,8.9s4.84,1.31,6.74-.47,3.37-6.94,3.54-10.06a16.35,16.35,0,0,0-.43-5.16S717.35,838.78,715.54,840.68Z" transform="translate(-123.48 -176.04)"/><polygon class="cls-65" points="599.4 670.6 599.4 678.59 598.37 678.59 598.37 672.41 599.4 670.6"/><path class="cls-11" d="M687.5,716.29s-4.13,22.77-5.25,28.47-4.25,33.29-4.58,38,10.19,27.26,10.85,28.82c11,26.06,12.29,32,12.29,32s3.61,2.26,5.29-.44c.5-.82-6.79-30.71-8-39-1.11-7.71-4-19.61-3.24-22.32s7.94-40,9.28-41.56,3.35.89,4.13,4.36,2.46,33.4,3.46,37.2.23,16.65.79,23.13,2.88,36.72,2.88,36.72,4.5.81,5,.09,4.34-33.6,4.45-41.3.24-18.34.45-21.68c2.07-31.94,6-36.12-.85-59.11C707.68,663.35,687.5,716.29,687.5,716.29Z" transform="translate(-123.48 -176.04)"/><path class="cls-80" d="M687.5,716.29s-4.13,22.77-5.25,28.47-4.25,33.29-4.58,38,9.83,27.26,10.05,28.94,8.6,25.66,8.6,25.66,8.46-.14,10.76-2.33c.47-.44-7.77-22.64-9-30.93-1.11-7.71-4-19.61-3.24-22.32s7.94-40,9.28-41.56,3.35.89,4.13,4.36,2.46,33.4,3.46,37.2.23,16.65.79,23.13-.62,29.5-.62,29.5,11.08.58,11.52-.14,1.27-26.15,1.38-33.85.24-18.34.45-21.68c2.07-31.94,6-36.12-.85-59.11C707.68,663.35,687.5,716.29,687.5,716.29Z" transform="translate(-123.48 -176.04)"/><path class="cls-65" d="M726.07,724c.64-.26-4.53-17.36-5.56-22.48-.92-4.61-4.07-8.83-1-16.68a29.24,29.24,0,0,0,1.64-9.82s4.71,10.39,5.16,13.07-16.28-2.2-16.51-1.82c-.44.7-.93,5.23-.93,6.79,0,1.29,24.27,7,27.15,2,.81-1.44-4.46-29-7.86-32.7-5.59-6-20.26-11.18-20.26-11.18s-4-2.16-11.1.08-17,9.08-18.69,10.87-8.57,28.73-9.17,32.21c-.56,3.29-.34,10.19,7.15,9.31l20.22-4.63-1.25-6.17L679.91,694c-3.09.53-1.61-2.19-1.21-3.69s4.19-15.19,4.19-15.19c-.22,3.79,2.64,16.27,4.13,20.59s-1.8,27.43-2,30C685,725.62,697.17,735.62,726.07,724Z" transform="translate(-123.48 -176.04)"/><path class="cls-11" d="M711.21,652.35s-5,10.29-9.15,13.31c0,0-7.5-11.24-7.12-13.83C694.94,651.83,703.25,648.14,711.21,652.35Z" transform="translate(-123.48 -176.04)"/><path class="cls-11" d="M711.39,687.06a9.32,9.32,0,0,1-2.92-1.77c-.62-.84-2.67-1.34-4.18-.89s-.68,7-.68,7l8,1Z" transform="translate(-123.48 -176.04)"/><path class="cls-11" d="M696.91,692a30.94,30.94,0,0,0,.58-5c-.18-.78,1.37-1.56,1.58.36s.33,3.14.33,3.14Z" transform="translate(-123.48 -176.04)"/><path class="cls-54" d="M700.23,695l5.83-.24a1.4,1.4,0,0,0,1.34-1.39l.16-12.75a1.4,1.4,0,0,0-1.45-1.42l-7,.23a1.41,1.41,0,0,0-1.36,1.51l1,12.76A1.4,1.4,0,0,0,700.23,695Z" transform="translate(-123.48 -176.04)"/><path class="cls-11" d="M696.78,692.38s-.11-1.2,2.19-2.3c3-1.45,7.11-2.93,7.81-2.55,1,.55.48,1.31-1.44,2l-2.57.84s3.77-.36,4.62.09.89,1.49.27,1.66a15.94,15.94,0,0,1-2.07.28s1.6.06,1.76.7c.12.48.17,1.16-1.34,1.44a1.11,1.11,0,0,1-.51,1.87,26.73,26.73,0,0,1-5.73,1.62,64.56,64.56,0,0,1-9.48.13l2.7-4.57a7.79,7.79,0,0,0,2.53-.24C696.92,692.83,696.78,692.38,696.78,692.38Z" transform="translate(-123.48 -176.04)"/><polygon class="cls-65" points="571.59 516.71 572.84 522.87 559.96 525.83 559.46 517.67 571.59 516.71"/><path class="cls-65" d="M709.81,686.22a16.29,16.29,0,0,0-.93,6.79s8,2.92,14.2,3.6v-7.84Z" transform="translate(-123.48 -176.04)"/><path class="cls-87" d="M696.32,698.92l-9,5c.06-1.05.11-2.05.13-3Z" transform="translate(-123.48 -176.04)"/><path class="cls-87" d="M720.07,699.59c-7.25-2.88-10.15-5.48-11-6.31a2.32,2.32,0,0,1-.24-.27l10.29,3h0C719.43,697.26,719.77,698.43,720.07,699.59Z" transform="translate(-123.48 -176.04)"/><path class="cls-11" d="M703.36,615.17s10.08,1.45,8.6,16.32-10.37,13.7-11,13.69-8.92.31-9.64-17.85C691.36,627.33,691,613.91,703.36,615.17Z" transform="translate(-123.48 -176.04)"/><path class="cls-11" d="M707.84,642.54s-.63,7.73.87,10.05-1.28,5.47-7,4.39-5.36-4.3-5.36-4.3,1.59-4.78,1.13-8.6S707.84,642.54,707.84,642.54Z" transform="translate(-123.48 -176.04)"/><path class="cls-86" d="M702.21,620.56s4.71,5,6.89,7.45,2.44,7.35,2.44,7.35,3.69-4.5,2.15-9.74-5.19-15.43-14.42-12.3-9.57,16.91-8.48,23.75C690.79,637.07,694.93,622,702.21,620.56Z" transform="translate(-123.48 -176.04)"/><path class="cls-17" d="M698.24,644.5a8.79,8.79,0,0,0,8.47-1,5.45,5.45,0,0,1-4.24,2.74A4.17,4.17,0,0,1,698.24,644.5Z" transform="translate(-123.48 -176.04)"/><path class="cls-86" d="M696.78,647.2s-13.87,12.33-10.27,20c3.07,6.57,14,2.54,12.16-4.34A76.91,76.91,0,0,1,696.78,647.2Z" transform="translate(-123.48 -176.04)"/><path class="cls-88" d="M700.55,681.85a.87.87,0,1,1-.87-.87A.87.87,0,0,1,700.55,681.85Z" transform="translate(-123.48 -176.04)"/><polygon class="cls-89" points="202.14 677.13 192.02 609.85 193.97 609.55 204.08 676.83 202.14 677.13"/><polygon class="cls-89" points="189.78 677.13 179.67 609.85 181.62 609.55 191.73 676.83 189.78 677.13"/><polygon class="cls-89" points="128.94 677.13 127 676.83 137.11 609.55 139.06 609.85 128.94 677.13"/><path class="cls-90" d="M318.67,786.58l7.92-83.36s-13.86-1.82-22.23-1.37l-12.59,84.73Z" transform="translate(-123.48 -176.04)"/><rect class="cls-90" x="168.29" y="606.3" width="26.89" height="4.24"/><path class="cls-90" d="M274.18,783.18,270,703.74s35.08-3.81,56.62-.52Z" transform="translate(-123.48 -176.04)"/><path class="cls-91" d="M302.18,678s5.42-15.88-4.91-20.81-19.12,2.2-20.77,6-1.22,10.85.19,15.73,1.21,12.32-1.86,14.81-6.88,6.61-6.69,15c.11,5.21,20.52-13.34,20.52-13.34Z" transform="translate(-123.48 -176.04)"/><path class="cls-92" d="M288.39,848.92s-.32,11.23,1.29,11.9,7.66-3.22,10.34-7.09-3.35-12.84-4.34-17.79c-.42-2.08-5.13-5.81-7.43-4.74a11.17,11.17,0,0,0-4,3.81S290.12,839,288.39,848.92Z" transform="translate(-123.48 -176.04)"/><path class="cls-93" d="M284.28,835a61.66,61.66,0,0,1,3,6.8c1,3,1.21,11.2,1.86,11.77s5.73-2,6.41-5.07-1.39-9.23-3.35-12.46a20.05,20.05,0,0,0-4-4.85S284.78,831.87,284.28,835Z" transform="translate(-123.48 -176.04)"/><polygon class="cls-92" points="172.2 659.89 177.66 667.87 176.63 668.57 172.4 662.41 172.2 659.89"/><path class="cls-93" d="M276,747.79s2.67,4.51,0,7.8-20.63,12.3-20.5,17.51,3.42,13.37,4.6,15.44,5.54,10.65,7.81,15.68,15.37,29.06,17.93,34.47,1-21.67,1-21.67L273.74,778.6l30.62-29.82S300.65,740.53,276,747.79Z" transform="translate(-123.48 -176.04)"/><path class="cls-15" d="M287.66,696.91s-8.49,1.88-11.86,3.86-10.86,11-10.86,14.93,32.74,7.54,32.74,7.54l6.21,22.65s16.55-4,18.52-7.39-6.52-27.18-7.7-32.21-7.37-8.41-14.27-9.38A47.66,47.66,0,0,0,287.66,696.91Z" transform="translate(-123.48 -176.04)"/><path class="cls-11" d="M307.74,748.54s-.59,3.87,1,5.51,8.84,11.22,5,20.63c-3.54,8.64-10.38,8.47-10.38,8.47h-10.6s3.08,15.55,2.09,25.79-5.67,33.65-5.77,34.83-4.48,4.88-5.76,3c0,0-.12-14.08-.81-19.4s-3.63-26.6-4.51-29.75-6.11-12.71-6.11-13.7-5.1-16.41,6-20.35S293,748.62,307.74,748.54Z" transform="translate(-123.48 -176.04)"/><path class="cls-94" d="M278,857.64s-7.31,8.52-6.48,10.06,8,2.31,12.5,1,5.47-12.09,7.81-16.57c1-1.87-.33-7.74-2.79-8.35a11.17,11.17,0,0,0-5.49.46S285.6,851,278,857.64Z" transform="translate(-123.48 -176.04)"/><path class="cls-11" d="M283.57,844.23a62.08,62.08,0,0,1-1.93,7.18c-1.08,3-6.1,9.48-6,10.33s5.71,2,8.17.08,4.73-8,5.24-11.79a20.28,20.28,0,0,0,0-6.26S285.94,842.11,283.57,844.23Z" transform="translate(-123.48 -176.04)"/><polygon class="cls-94" points="168.37 676.08 167.61 685.71 166.36 685.61 166.95 678.17 168.37 676.08"/><path class="cls-15" d="M313.72,774.68c-3.34,8.75-10.38,8.47-10.38,8.47h-10.6s-4.42-7-15.24-8.21a32,32,0,0,0-8.16.2h-.12c-14.38,2.13-11.6,7.41-11.56,7.55-1.19-2.92-2.45-7.56-2.14-10.06,1.38-11.38,17.82-13.77,20.5-17s0-7.8,0-7.8c24.63-7.26,28.34,1,28.34,1,1.08-.15,3.84-1.75,5-1.75,0,0,1.23,2.69,2.1,5.12C312.25,754.29,317.33,765.18,313.72,774.68Z" transform="translate(-123.48 -176.04)"/><polygon class="cls-95" points="180.01 535.96 183.66 569.85 135.68 569.85 132.04 535.96 180.01 535.96"/><rect class="cls-95" x="179.46" y="566.8" width="8.01" height="3.05"/><rect class="cls-96" x="102.62" y="569.85" width="132.15" height="4.61"/><path class="cls-11" d="M293,659.92s10.75,3.18,9.21,18.1-8.55,14.15-9.21,14.26-9,.66-11.63-17.44S293,659.92,293,659.92Z" transform="translate(-123.48 -176.04)"/><path class="cls-11" d="M298.09,689.53s-.57,4.94.39,8S286,700.7,286,698.17c0-2.86,1.38-5.26.09-10.18S298.09,689.53,298.09,689.53Z" transform="translate(-123.48 -176.04)"/><path class="cls-91" d="M290.2,666.57s5.84,9.29,12,11.45c0,0,3.36-15.59-10.5-18.86S280,674.91,281,680A41.25,41.25,0,0,1,290.2,666.57Z" transform="translate(-123.48 -176.04)"/><path class="cls-17" d="M287.64,690.16a7.28,7.28,0,0,0,9.7.47s-.45,2.83-4.36,3.19S287.64,690.16,287.64,690.16Z" transform="translate(-123.48 -176.04)"/><path class="cls-97" d="M282.36,665.17s3.08-5.95,8.27-6.22,8.28,4.24,8.28,4.24a8.84,8.84,0,0,0-8.28-5.07C284.39,658.12,282.36,665.17,282.36,665.17Z" transform="translate(-123.48 -176.04)"/><path class="cls-11" d="M299.85,696.83s-.19,10.33-8.38,10.64-6.48-9.91-6.48-9.91S291,695.14,299.85,696.83Z" transform="translate(-123.48 -176.04)"/><rect class="cls-12" x="231.37" y="574.46" width="3.39" height="105.96"/><rect class="cls-12" x="102.62" y="574.46" width="3.39" height="105.96"/><path class="cls-11" d="M626.86,656.86s10.51,3.09,9.86,17.38S626.86,656.86,626.86,656.86Z" transform="translate(-123.48 -176.04)"/><path class="cls-11" d="M625.89,656.86s.81,1.1-.21,8.21.91,10.09,1.14,13,3.7,22.07,3.79,22.92.57,11,1.92,13.71,11.3,18,11.44,18.77,4.83-2.67,4.83-2.67-8.94-18.59-9.51-20.42c-.72-2.27-2.92-7.91-3.06-10.86-.33-7.21.33-24,.07-27.61C635.83,665.13,630.45,658,625.89,656.86Z" transform="translate(-123.48 -176.04)"/><path class="cls-49" d="M639.29,717.89s1.56,3.44,2.49,3.65,2,1.36,2.82,1.71,3.28.54,3.95,1.19c.28.27,1.33,2.57,1.94,3s2,1.3,1.56,1.82-1.84.11-1.84.11a1,1,0,0,1,.31,1c-.45,1.12-1.19,1.17-1.19,1.17s.24.83-.06,1.24a2,2,0,0,1-1.39.94,1.89,1.89,0,0,1-.64,1.15,1.7,1.7,0,0,1-1.66.28s-.74,1-1.42.82a5.88,5.88,0,0,1-1.57-1,23.35,23.35,0,0,1-5.17-7.9,28.18,28.18,0,0,0-3.45-6.67Z" transform="translate(-123.48 -176.04)"/><rect class="cls-98" x="624.73" y="692.58" width="29.62" height="49.43" transform="translate(670.34 -407.28) rotate(50.96)"/><path class="cls-99" d="M650,729s-3-3.31-4.46-3.25-.47,1.32-.47,1.32-1-1.26-2-.59.2,2.07.2,2.07a1.22,1.22,0,0,0-1.77.29c-.78,1,.52,2,.52,2s-2-.29-1.54,1.32c.71,2.7,3.63,4,3.63,4s.82.23,1.5-.83a1.71,1.71,0,0,0,2.34-1.42s2.15-.5,1.46-2.21A1.53,1.53,0,0,0,650,729Z" transform="translate(-123.48 -176.04)"/><path class="cls-91" d="M617.24,615.11s-15.2-1.27-14.78,14.73,2.94,18.4,0,29.7,14.82-6.42,14.82-6.42Z" transform="translate(-123.48 -176.04)"/><path class="cls-49" d="M600.68,713.94s-5.6,7.14-7.58,11.86-5.27,15.07-4.83,23.08,3.07,23,2.31,26.46-1.54,10.43-2.36,12.84-4.12,9.44-4.45,16.69,4.61,39.08,4.39,42,5.6,1.21,5.6,1.21,2-28.76,3.07-33.7,2.42-21.74,3.41-22.94,3.69-13.73,3.27-15.7,10.78-31.62,11.44-37.55,17.17-24.29,17.17-24.29A51.3,51.3,0,0,0,600.68,713.94Z" transform="translate(-123.48 -176.04)"/><path class="cls-49" d="M627.4,713.94A33.29,33.29,0,0,0,628,718c.33,1.1,7.91,29.09,8.68,39.85a209.23,209.23,0,0,0,3.07,22.18,47.65,47.65,0,0,1-1,12c-.66,2,3.29,48.63,3.62,49.73s-2.63,1.42-4.72,1.09-12.62-34.25-12-40,1.31-17.88-.55-22.83-18.67-40.73-18.77-42.93S599.12,697.12,627.4,713.94Z" transform="translate(-123.48 -176.04)"/><path class="cls-49" d="M593.66,844.62a23.63,23.63,0,0,0,1.13,4.83c.59,1,2.21,6.3,3,7.28s2.36,8.37,0,9.26-7.92,2.36-9.79-.59a12.14,12.14,0,0,1-1.82-8.18c.29-2.26,2.54-12.65,2.51-13.68S593.66,844.62,593.66,844.62Z" transform="translate(-123.48 -176.04)"/><path class="cls-4" d="M596.8,854.69s.25,5.73-4.08,5.73-6.25-5.22-6.25-5.22-1.48,2.57,0,8,7.63,4.33,9,4.13S603.39,865.44,596.8,854.69Z" transform="translate(-123.48 -176.04)"/><path class="cls-4" d="M641.93,839.47s3.06,5.48,4.88,6.59c2.26,1.38,6.66,5.82,8.2,6s7,1.18,6,4.3c-.88,2.56-14,2.19-15.53.91s-5.93-5.88-7.72-5.77-1.13,6.63-1.13,6.63h-1.94s-.68-6.35-.77-7.45c-.24-3.23,2.06-5.6,2.17-7.45s.2-3.22.2-3.22Z" transform="translate(-123.48 -176.04)"/><path class="cls-49" d="M654.57,851.93s-4.35,1.5-7.69-.42-9.75-4.83-12-4.86c0,0,1.24-3.78,1.26-4.2s.16-2.42.16-2.42l5.61-.89s3.64,5.33,5.24,6.59A92.1,92.1,0,0,1,654.57,851.93Z" transform="translate(-123.48 -176.04)"/><path class="cls-82" d="M632.21,713.45s1.57,6.5,2.14,8.4,4.28,31.27,5.19,49.65c0,0-22.15,8.39-52.61,7,0,0-.75-33.75,2.05-43.3s7.87-18.49,11.7-21.25C604.08,711.49,632.21,713.45,632.21,713.45Z" transform="translate(-123.48 -176.04)"/><path class="cls-76" d="M636,675c-.25,3.87-1.83,6.35-2.16,7.75s0,4.61-.41,7.82-1.65,18.52-1.24,22.89-30,2.39-32.26,1.07c0,0,5.12-9.14,5.26-12.93,0-1.3.82-5.35-1.32-8.31-1.13-1.57-3.23-6.55-5.32-10.19h0c-.81-1.41-1.66-2.82-2.25-3.87h0a14.45,14.45,0,0,1-1.21-3s-1.35-16.8,2.36-18.69a19,19,0,0,1,9.3-2.39,26.24,26.24,0,0,0,6-.9l8.48.9a19,19,0,0,0,5.13,1.57c2.14.16,4.76,4.81,6.06,8.18C633.51,667.68,636.27,671.12,636,675Z" transform="translate(-123.48 -176.04)"/><path class="cls-11" d="M602.07,655.79s-6.71.55-9.24,6.72S590.52,675,590,677.22s-1.34,15.48-1.92,17.43a110.6,110.6,0,0,0-3,18.31c-.44,7.31.65,22.73.65,22.73l3.72-1.81s3.31-22.86,4.74-27.7c1.23-4.13,1.23-11.16,1.92-13.7s4.9-17.82,5.58-19.36C602.71,670.74,607.84,655.71,602.07,655.79Z" transform="translate(-123.48 -176.04)"/><path class="cls-11" d="M615.76,616.73c3.76-.62,12.39.32,14.83,10.22a30.74,30.74,0,0,1-.41,4.94c-.41,2.21,2.21,8.26,1.75,8.63a14.15,14.15,0,0,1-2.47,1s-1.43,7.11-3.84,7.33-11.73-.63-17-8.66S600.54,619.22,615.76,616.73Z" transform="translate(-123.48 -176.04)"/><path class="cls-11" d="M622,646.08s-.18,1-.36,2.46c-.09.75-.17,1.62-.22,2.54-.15,2.55-.08,5.5.79,7.37,0,0-4.73,2.88-9.79-4.16,0,0,.5-8.73-2.4-13.37S622,646.08,622,646.08Z" transform="translate(-123.48 -176.04)"/><path class="cls-91" d="M630.59,627s-5.67,4.9-11.68,6.44-9.19,8.3-9.19,8.3-10.63-10.61-4.21-20.9S630.58,615.09,630.59,627Z" transform="translate(-123.48 -176.04)"/><path class="cls-17" d="M621.65,648.54c-.09.75-.17,1.62-.22,2.54a26.46,26.46,0,0,1-8.22-6.1C616.32,647.21,621.65,648.54,621.65,648.54Z" transform="translate(-123.48 -176.04)"/><path class="cls-91" d="M617.81,633.74s-6.15,16.53-5.41,20.51c0,0-3.26-.56-9,1.21C603.35,655.46,606.15,626,617.81,633.74Z" transform="translate(-123.48 -176.04)"/><path class="cls-11" d="M610.34,654.78s2,12.39,9.52,11,1.81-10.48,1.81-10.48S618.34,652.5,610.34,654.78Z" transform="translate(-123.48 -176.04)"/><path class="cls-11" d="M589.52,733.25a32.83,32.83,0,0,0,1.51,3.94c.45,1,1.13,7.46,1.15,8.3s-.48.33-.75-.12c-.16-.26-.75-2.47-1.26-3.64-.42-1-.75-1.33-.91-1a22,22,0,0,0,.36,6.3c.52,1.76.43,5.91-.56,5.38s-3.74-7.8-3.77-10.62a55.88,55.88,0,0,1,.41-6.22Z" transform="translate(-123.48 -176.04)"/></g><g id="Layer_5" data-name="Layer 5"><path class="cls-100" d="M185.11,238.91l42-24.27a20.68,20.68,0,1,0-20.69-35.82l-72.63,41.94Z" transform="translate(-123.48 -176.04)"/><path class="cls-101" d="M216.79,301.29a20.69,20.69,0,0,0,10.36-38.6l-72.64-41.93a20.68,20.68,0,1,0-20.68,35.82l72.63,41.94A20.62,20.62,0,0,0,216.79,301.29Z" transform="translate(-123.48 -176.04)"/><path class="cls-102" d="M289,301.29a20.56,20.56,0,0,0,10.32-2.77L372,256.58l-50.63-18.53-42.69,24.64A20.69,20.69,0,0,0,289,301.29Z" transform="translate(-123.48 -176.04)"/><path class="cls-103" d="M361.64,259.36A20.69,20.69,0,0,0,372,220.76l-72.64-41.94a20.68,20.68,0,0,0-20.68,35.82l72.64,41.94A20.57,20.57,0,0,0,361.64,259.36Z" transform="translate(-123.48 -176.04)"/><path class="cls-104" d="M445.35,193.1h27.56q14,0,24.49,5.81A40.05,40.05,0,0,1,513.47,215a53,53,0,0,1,0,47.45,40,40,0,0,1-16.07,16.14q-10.47,5.81-24.49,5.8H445.35Zm27.56,81q16.18,0,25.7-9.31t9.5-26q0-16.71-9.5-26t-25.7-9.31H456.07V274.1Z" transform="translate(-123.48 -176.04)"/><path class="cls-104" d="M540.63,282a31,31,0,0,1-11.54-12.31A37.27,37.27,0,0,1,525,252a38.64,38.64,0,0,1,3.89-17.34,31.51,31.51,0,0,1,11-12.63,29.35,29.35,0,0,1,16.58-4.72A31.21,31.21,0,0,1,573,221.61a28.41,28.41,0,0,1,10.78,11.8,38,38,0,0,1,3.76,17.22,12.53,12.53,0,0,1-.38,3.32h-51.4a25.63,25.63,0,0,0,3.57,12.5,20.73,20.73,0,0,0,8.1,7.65,22,22,0,0,0,10.27,2.55q12.49,0,19.26-11.73l9.18,4.46a32.66,32.66,0,0,1-11.41,12.5q-7.21,4.59-17.42,4.59A31.71,31.71,0,0,1,540.63,282Zm35.46-37a21.1,21.1,0,0,0-2.29-8.16,17.47,17.47,0,0,0-6.44-6.89,20.2,20.2,0,0,0-11-2.81,18.34,18.34,0,0,0-12.94,4.91,23.6,23.6,0,0,0-7,13Z" transform="translate(-123.48 -176.04)"/><path class="cls-104" d="M589.23,219.38h11.61L621,271.68h.26l20.41-52.3H653l-26.53,65.05h-11Z" transform="translate(-123.48 -176.04)"/><path class="cls-104" d="M669.72,282a31,31,0,0,1-11.55-12.31A37.27,37.27,0,0,1,654,252a38.64,38.64,0,0,1,3.89-17.34,31.51,31.51,0,0,1,11-12.63,29.35,29.35,0,0,1,16.58-4.72,31.27,31.27,0,0,1,16.59,4.27,28.39,28.39,0,0,1,10.77,11.8,38,38,0,0,1,3.77,17.22,12.5,12.5,0,0,1-.39,3.32h-51.4a25.84,25.84,0,0,0,3.57,12.5,20.87,20.87,0,0,0,8.1,7.65,22,22,0,0,0,10.27,2.55q12.5,0,19.26-11.73l9.18,4.46a32.66,32.66,0,0,1-11.41,12.5q-7.22,4.59-17.41,4.59A31.66,31.66,0,0,1,669.72,282Zm35.46-37a21.12,21.12,0,0,0-2.3-8.16,17.47,17.47,0,0,0-6.44-6.89,20.14,20.14,0,0,0-11-2.81,18.35,18.35,0,0,0-12.95,4.91,23.6,23.6,0,0,0-7,13Z" transform="translate(-123.48 -176.04)"/><path class="cls-104" d="M726.73,193.1h10.84v91.33H726.73Z" transform="translate(-123.48 -176.04)"/><path class="cls-104" d="M763.21,281.88a32.06,32.06,0,0,1-11.92-12.5,37.89,37.89,0,0,1,0-34.95,32.13,32.13,0,0,1,11.92-12.5,34.6,34.6,0,0,1,34.44,0,32.08,32.08,0,0,1,11.93,12.5,37.89,37.89,0,0,1,0,34.95,32,32,0,0,1-11.93,12.5,34.6,34.6,0,0,1-34.44,0Zm28.38-8.23a22.07,22.07,0,0,0,8.3-8.61,29.21,29.21,0,0,0,0-26.27,22.2,22.2,0,0,0-8.3-8.61,21.82,21.82,0,0,0-11.16-3,22.18,22.18,0,0,0-19.58,11.61,29.21,29.21,0,0,0,0,26.27,21.93,21.93,0,0,0,8.36,8.61,22.2,22.2,0,0,0,11.22,3A21.82,21.82,0,0,0,791.59,273.65Z" transform="translate(-123.48 -176.04)"/><path class="cls-104" d="M822.78,219.38h10.33v9.69h.51a23.52,23.52,0,0,1,8.87-8.35,26.47,26.47,0,0,1,13.33-3.38,29.33,29.33,0,0,1,15.82,4.46,31.08,31.08,0,0,1,11.22,12.38,40.69,40.69,0,0,1,0,35.52A31.15,31.15,0,0,1,871.64,282a29.25,29.25,0,0,1-15.82,4.46,26.37,26.37,0,0,1-13.33-3.38,23.87,23.87,0,0,1-8.87-8.22h-.51l.51,8.93V312H822.78Zm42.35,54.21a22,22,0,0,0,8-8.74,29.43,29.43,0,0,0,0-25.89,22.1,22.1,0,0,0-8-8.74,19.84,19.84,0,0,0-21.17,0,21.7,21.7,0,0,0-7.91,8.68,30.26,30.26,0,0,0,0,26,21.67,21.67,0,0,0,7.91,8.67,19.84,19.84,0,0,0,21.17,0Z" transform="translate(-123.48 -176.04)"/><path class="cls-104" d="M909.26,282a31,31,0,0,1-11.54-12.31A37.16,37.16,0,0,1,893.57,252a38.78,38.78,0,0,1,3.89-17.34,31.53,31.53,0,0,1,11-12.63,29.35,29.35,0,0,1,16.58-4.72,31.24,31.24,0,0,1,16.58,4.27,28.41,28.41,0,0,1,10.78,11.8,38,38,0,0,1,3.76,17.22,13,13,0,0,1-.38,3.32h-51.4a25.63,25.63,0,0,0,3.57,12.5,20.73,20.73,0,0,0,8.1,7.65,22,22,0,0,0,10.26,2.55q12.51,0,19.27-11.73l9.18,4.46a32.68,32.68,0,0,1-11.42,12.5q-7.2,4.59-17.41,4.59A31.66,31.66,0,0,1,909.26,282Zm35.46-37a21.1,21.1,0,0,0-2.29-8.16A17.47,17.47,0,0,0,936,230a20.2,20.2,0,0,0-11-2.81,18.36,18.36,0,0,0-13,4.91,23.73,23.73,0,0,0-7,13Z" transform="translate(-123.48 -176.04)"/><path class="cls-104" d="M966.28,219.38h10.33v10.46h.51a17.76,17.76,0,0,1,7.4-8.93A20.71,20.71,0,0,1,996,217.34a19,19,0,0,1,7.65,1.4v11.61a20.24,20.24,0,0,0-9.18-2,15.13,15.13,0,0,0-8.68,2.68,19.32,19.32,0,0,0-6.31,7.23,20.77,20.77,0,0,0-2.36,9.78v36.43H966.28Z" transform="translate(-123.48 -176.04)"/><path class="cls-104" d="M1042.81,280q-8.93-6.51-12.25-18.24l10.34-4.21a26.57,26.57,0,0,0,8,13.39,20,20,0,0,0,13.78,5.23,21.12,21.12,0,0,0,13.39-4.27,14,14,0,0,0,5.49-11.67,13.52,13.52,0,0,0-4.66-10.53q-4.67-4.14-15.24-7.71l-5.74-2a45.77,45.77,0,0,1-15.82-9.06q-6.12-5.61-6.12-15.56a21.81,21.81,0,0,1,3.57-12.05,25.56,25.56,0,0,1,10-8.87,33,33,0,0,1,28.06-.38,28.57,28.57,0,0,1,9.38,7.14,27,27,0,0,1,4.91,8.29l-10.21,4.34a17,17,0,0,0-5.8-8.55q-4.53-3.83-11.93-3.82a18.71,18.71,0,0,0-12,3.95,12.22,12.22,0,0,0-5,10,10.7,10.7,0,0,0,4.21,8.74q4.2,3.38,12.75,6.31l6,2q11.6,4.22,18.11,10.52t6.5,17.16q0,8.81-4.52,14.8a26.76,26.76,0,0,1-11.42,8.8,37.2,37.2,0,0,1-14.16,2.8A32.58,32.58,0,0,1,1042.81,280Z" transform="translate(-123.48 -176.04)"/><path class="cls-104" d="M1118.26,285.18a16.77,16.77,0,0,1-5.68-3.51,16.05,16.05,0,0,1-3.83-5.72,21.7,21.7,0,0,1-1.27-7.92V229.2h-11.35v-9.82h11.35V201h10.84v18.37h15.82v9.82h-15.82v36.25q0,5.48,2,8.08a8.7,8.7,0,0,0,7,2.87,13.21,13.21,0,0,0,7.14-2.17v10.59a16.69,16.69,0,0,1-3.89,1.27,26.94,26.94,0,0,1-5,.38A20.35,20.35,0,0,1,1118.26,285.18Z" transform="translate(-123.48 -176.04)"/><path class="cls-104" d="M1150.4,279.59q-6.2-6.9-6.19-19.26V219.38h10.85v39.29q0,9.31,4.2,13.65t11.36,4.33a16.82,16.82,0,0,0,9.76-2.93,20.13,20.13,0,0,0,6.63-7.65,22,22,0,0,0,2.36-9.95V219.38h10.84v65.05h-10.33V275h-.51a21.46,21.46,0,0,1-8.55,8.17,25,25,0,0,1-12.5,3.31Q1156.59,286.47,1150.4,279.59Z" transform="translate(-123.48 -176.04)"/><path class="cls-104" d="M1224.89,282a31.3,31.3,0,0,1-11.16-12.31,40.69,40.69,0,0,1,0-35.52,31.23,31.23,0,0,1,11.16-12.38,29,29,0,0,1,15.75-4.46,26.39,26.39,0,0,1,13.4,3.38,24.63,24.63,0,0,1,8.93,8.35h.51l-.51-9V193.1h10.84v91.33h-10.33v-9.56H1263a25,25,0,0,1-8.93,8.22,26.29,26.29,0,0,1-13.4,3.38A28.89,28.89,0,0,1,1224.89,282Zm27.68-8.42a22.41,22.41,0,0,0,7.91-8.67,29.71,29.71,0,0,0,0-26,22.44,22.44,0,0,0-7.91-8.68,20,20,0,0,0-21.24,0,22.18,22.18,0,0,0-8,8.74,29.43,29.43,0,0,0,0,25.89,22.11,22.11,0,0,0,8,8.74,20,20,0,0,0,21.24,0Z" transform="translate(-123.48 -176.04)"/><path class="cls-104" d="M1298.94,282a31,31,0,0,1-11.55-12.31,37.27,37.27,0,0,1-4.14-17.67,38.64,38.64,0,0,1,3.89-17.34,31.51,31.51,0,0,1,11-12.63,29.35,29.35,0,0,1,16.58-4.72,31.21,31.21,0,0,1,16.58,4.27,28.41,28.41,0,0,1,10.78,11.8,38,38,0,0,1,3.77,17.22,12.5,12.5,0,0,1-.39,3.32h-51.4a25.63,25.63,0,0,0,3.57,12.5,20.87,20.87,0,0,0,8.1,7.65,22,22,0,0,0,10.27,2.55q12.49,0,19.26-11.73l9.18,4.46a32.66,32.66,0,0,1-11.41,12.5q-7.21,4.59-17.41,4.59A31.66,31.66,0,0,1,1298.94,282Zm35.46-37a21.29,21.29,0,0,0-2.3-8.16,17.47,17.47,0,0,0-6.44-6.89,20.14,20.14,0,0,0-11-2.81,18.35,18.35,0,0,0-13,4.91,23.6,23.6,0,0,0-7,13Z" transform="translate(-123.48 -176.04)"/><path class="cls-104" d="M1356,219.38h10.33V229h.51a21.92,21.92,0,0,1,8.55-8.23,24.68,24.68,0,0,1,12.5-3.38q11.73,0,17.92,6.82t6.19,18.56v41.71h-10.84V244.38c0-6-1.45-10.41-4.34-13.14s-6.85-4.08-11.86-4.08a15.81,15.81,0,0,0-9.38,2.94,19.67,19.67,0,0,0-6.44,7.71,22.9,22.9,0,0,0-2.3,10v36.6H1356Z" transform="translate(-123.48 -176.04)"/><path class="cls-104" d="M1439.43,285.18a16.82,16.82,0,0,1-5.67-3.51,16.05,16.05,0,0,1-3.83-5.72,21.7,21.7,0,0,1-1.27-7.92V229.2H1417.3v-9.82h11.36V201h10.84v18.37h15.81v9.82H1439.5v36.25q0,5.48,2,8.08a8.66,8.66,0,0,0,7,2.87,13.21,13.21,0,0,0,7.15-2.17v10.59a16.84,16.84,0,0,1-3.89,1.27,26.94,26.94,0,0,1-5,.38A20.44,20.44,0,0,1,1439.43,285.18Z" transform="translate(-123.48 -176.04)"/><path class="cls-104" d="M1511.31,280.22a45.17,45.17,0,0,1-17-17.15,50.86,50.86,0,0,1,0-48.6,45.26,45.26,0,0,1,17-17.16,47.46,47.46,0,0,1,24.11-6.25,44.39,44.39,0,0,1,18.69,3.89,43.67,43.67,0,0,1,14.73,11l-7.78,7.52a34.25,34.25,0,0,0-11.42-9.18,32.73,32.73,0,0,0-14.22-2.93,36.67,36.67,0,0,0-18.24,4.65,34.7,34.7,0,0,0-13.2,13.14,41.5,41.5,0,0,0,0,39.16,34.7,34.7,0,0,0,13.2,13.14,36.67,36.67,0,0,0,18.24,4.65q16.57,0,28.19-13.65l7.91,7.66a46.13,46.13,0,0,1-15.69,11.92,49.59,49.59,0,0,1-44.52-1.85Z" transform="translate(-123.48 -176.04)"/><path class="cls-104" d="M1581.08,193.1h10.85v91.33h-10.85Z" transform="translate(-123.48 -176.04)"/><path class="cls-104" d="M1611.12,279.59q-6.18-6.9-6.18-19.26V219.38h10.84v39.29q0,9.31,4.21,13.65t11.35,4.33a16.82,16.82,0,0,0,9.76-2.93,20,20,0,0,0,6.63-7.65,22,22,0,0,0,2.36-9.95V219.38h10.84v65.05H1650.6V275h-.51a21.46,21.46,0,0,1-8.55,8.17,25,25,0,0,1-12.5,3.31Q1617.31,286.47,1611.12,279.59Z" transform="translate(-123.48 -176.04)"/><path class="cls-104" d="M1694.16,283.09a23.79,23.79,0,0,1-8.87-8.22h-.51v9.56h-10.33V193.1h10.84V220l-.51,9h.51a23.44,23.44,0,0,1,8.87-8.35,26.47,26.47,0,0,1,13.33-3.38,29.27,29.27,0,0,1,15.81,4.46,31,31,0,0,1,11.23,12.38,40.69,40.69,0,0,1,0,35.52A31.1,31.1,0,0,1,1723.3,282a29.19,29.19,0,0,1-15.81,4.46A26.37,26.37,0,0,1,1694.16,283.09Zm22.64-9.5a22,22,0,0,0,8-8.74,29.43,29.43,0,0,0,0-25.89,22.1,22.1,0,0,0-8-8.74,19.84,19.84,0,0,0-21.17,0,21.7,21.7,0,0,0-7.91,8.68,30.26,30.26,0,0,0,0,26,21.67,21.67,0,0,0,7.91,8.67,19.84,19.84,0,0,0,21.17,0Z" transform="translate(-123.48 -176.04)"/><path class="cls-104" d="M1753.28,281.56a26.79,26.79,0,0,1-10-12.56l9.69-4.34a19.55,19.55,0,0,0,7.21,9.06,18.55,18.55,0,0,0,10.52,3.19,20.66,20.66,0,0,0,10.46-2.49,8,8,0,0,0,.9-13.65q-3.45-2.49-10.85-4.27l-7.9-2A28.49,28.49,0,0,1,1750.6,248,16.42,16.42,0,0,1,1749,226.2a21.66,21.66,0,0,1,9-6.56,31.7,31.7,0,0,1,12.12-2.3,31,31,0,0,1,15.24,3.7,21,21,0,0,1,9.5,10.33l-9.44,4.34Q1781.09,227,1770,227a17.45,17.45,0,0,0-9.38,2.49c-2.67,1.66-4,3.76-4,6.32a7.06,7.06,0,0,0,2.8,5.8,22.25,22.25,0,0,0,8.42,3.63l9.44,2.43q9.57,2.42,14.41,7.2a15.79,15.79,0,0,1,4.85,11.68,16.94,16.94,0,0,1-3.44,10.52,21.87,21.87,0,0,1-9.31,6.95,33.93,33.93,0,0,1-13,2.42Q1760.3,286.47,1753.28,281.56Z" transform="translate(-123.48 -176.04)"/><text class="cls-105" transform="translate(319.83 211.36)">Uni<tspan class="cls-106" x="105.3" y="0">v</tspan><tspan class="cls-107" x="141.52" y="0">e</tspan><tspan class="cls-108" x="181.72" y="0">r</tspan><tspan class="cls-109" x="207.45" y="0">si</tspan><tspan class="cls-110" x="257.32" y="0">t</tspan><tspan x="284.25" y="0">i</tspan><tspan class="cls-111" x="300.74" y="0"> </tspan><tspan class="cls-112" x="314.24" y="0">T</tspan><tspan x="348.74" y="0">ekn</tspan><tspan class="cls-113" x="465.82" y="0">ol</tspan><tspan x="522.37" y="0">ogi PETRONAS</tspan></text></g></svg>